<svg width="380" height="304" viewBox="0 0 380 304" fill="none" xmlns="http://www.w3.org/2000/svg">
<g clip-path="url(#clip0_1_2013)">
<rect width="395" height="304" transform="matrix(-1 0 0 1 395 0)" fill="white"/>
<g clip-path="url(#clip1_1_2013)">
<path d="M315.177 0C314.668 1.24144 314.091 2.43871 313.661 3.73317C310.982 11.8136 308.965 20.221 307.931 29.0613C307.679 31.2084 307.639 33.4748 307.799 35.644C308.25 41.8159 310.973 45.9511 315.254 46.6712C317.473 47.0423 319.763 46.8523 322.004 46.5917C326.374 46.0792 330.723 45.6286 335.094 46.7242C340.646 48.1159 345.14 52.0302 348.749 58.1623C350.327 60.844 351.395 63.9056 351.892 67.3561C352.242 69.7859 352.125 72.1893 351.327 74.4027C349.78 78.6837 347.537 82.0546 344.523 84.1929C341.361 86.4372 337.298 85.6375 334.505 82.461C334.505 82.3815 334.48 82.2666 334.508 82.2313C336.196 80.0135 336.549 77.186 336.309 74.089C336.242 73.2142 336.171 72.3351 336.073 71.4647C335.561 66.9761 333.157 64.6434 330.051 65.6065C325.92 66.8922 323.817 72.0037 325.104 77.8133C326.81 85.5182 330.64 90.2631 335.732 93.0641C346.263 98.8604 357.917 88.169 359.614 73.064C360.268 67.2324 359.326 61.732 357.322 56.722C352.908 45.6948 346.285 38.8735 337.648 36.1256C332.347 34.4379 327.013 34.7074 321.663 35.4894C320.223 35.7014 318.772 35.8428 317.326 35.8428C315.576 35.8428 314.963 35.0564 314.966 32.5294C314.966 30.4618 315.144 28.3588 315.448 26.331C316.731 17.8176 318.775 9.68856 321.62 1.98366C321.853 1.35189 322.016 0.662692 322.209 0.00441795C319.861 0 317.519 0 315.177 0Z" fill="#927628" fill-opacity="0.1"/>
<path d="M335.425 -2.23587e-05C335.171 0.751029 334.919 1.5065 334.658 2.25313C333.636 5.17781 332.826 8.20411 332.685 11.5087C332.491 15.9797 333.989 19.3727 336.963 20.7246C338.489 21.4182 340.115 21.7805 341.714 21.9572C345.41 22.3636 349.127 22.3636 352.736 23.8392C356.478 25.3678 360.081 27.3868 363.537 29.9537C364.105 30.3778 364.642 30.8903 365.2 31.3453C368.399 33.974 370.262 37.8309 370.636 43.1854C370.823 45.8362 370.915 45.8274 369.243 46.7861C367.637 47.7094 366.219 49.048 365.072 50.9036C364.58 51.6988 364.117 52.6178 363.856 53.603C363.104 56.426 364.654 59.1121 366.72 58.582C367.475 58.3876 368.178 57.8 368.927 57.4952C370.421 56.8943 371.91 56.2051 373.435 55.8517C375.05 55.4762 376.474 56.3509 377.551 58.1402C378.573 59.8367 379.516 61.6304 380.528 63.3357C381.013 64.1486 381.517 65.0057 382.131 65.5756C383.337 66.7022 384.678 66.0704 385.237 64.1574C385.455 63.4064 385.617 62.5007 385.55 61.7099C385.059 55.9356 383.518 50.8859 380.01 47.652C378.837 46.5696 378.447 45.5667 378.374 43.5919C378.039 34.7206 375.436 27.6431 370.16 22.6596C364.673 17.4774 358.651 14.5792 352.196 13.5056C349.492 13.055 346.745 13.1345 344.019 12.9578C342.546 12.865 341.073 12.7502 339.6 12.6221C338.857 12.5602 338.528 11.9947 338.774 10.9388C339.231 8.96841 339.652 6.96708 340.204 5.05411C340.705 3.31786 341.368 1.6788 341.957 -0.00444031C339.778 -2.23587e-05 337.602 -2.23587e-05 335.425 -2.23587e-05Z" fill="#927628" fill-opacity="0.1"/>
<path d="M150.846 -3.70899e-05C148.332 4.36048 147.055 9.39252 146.935 15.0387C146.843 19.3462 147.911 23.0042 150.134 25.867C153.083 29.6665 156.564 31.5883 160.541 31.3586C162.745 31.2349 164.664 29.9846 166.201 27.6961C166.619 27.0731 166.953 27.0334 167.506 27.2675C171.56 28.9773 175.566 28.752 179.43 26.2205C183.073 23.8348 185.335 18.5863 185.175 13.1699C185.016 7.75788 181.689 3.44596 177.963 3.82149C174.482 4.17051 172.515 8.63705 173.893 13.0594C174.341 14.4953 174.66 14.5483 175.299 13.2759C175.363 13.1478 175.421 13.0064 175.486 12.8783C176.229 11.4248 176.91 10.8858 177.502 11.2922C178.666 12.0919 179.292 13.7884 179.028 15.4098C178.794 16.85 178.214 17.9633 177.395 18.7983C174.939 21.2989 172.242 21.8467 169.347 20.8041C168.779 20.6009 168.733 20.0442 168.644 19.3903C168.341 17.1858 167.153 15.772 165.713 15.8471C164.277 15.9222 163.163 17.4553 163.034 19.7394C162.932 21.533 162.276 22.7303 161.192 23.2693C160.296 23.7155 159.295 23.8878 158.344 23.8922C157.613 23.8922 156.861 23.5211 156.159 23.1633C152.522 21.3254 151.018 17.6187 151.742 12.1802C152.322 7.81531 153.583 3.95403 156.014 1.03376C156.269 0.728924 156.472 0.340145 156.699 -0.00887299C154.75 -3.70899e-05 152.798 -3.70899e-05 150.846 -3.70899e-05Z" fill="#927628" fill-opacity="0.1"/>
<path d="M395 200.133C394.782 199.775 394.552 199.431 394.349 199.055C392.453 195.556 390.396 192.256 387.72 189.981C386.468 188.916 385.062 188.147 383.665 187.546C382.53 187.06 381.437 187.639 380.7 189.079C379.942 190.568 379.955 192.212 380.599 193.723C381.102 194.907 381.744 195.993 382.413 197.005C383.929 199.303 385.562 201.45 387.035 203.8C390.709 209.663 393.137 216.506 394.491 224.149C394.61 224.834 394.828 225.479 395.003 226.142C395 217.474 395 208.801 395 200.133Z" fill="#927628" fill-opacity="0.1"/>
<path d="M98.6342 -2.23592e-05C96.8387 7.39562 100.476 16.3022 106.01 18.065C113.225 20.3667 119.416 10.8549 117.32 0.693596C117.274 0.463862 117.246 0.229711 117.209 -0.00444031C115.313 -0.00444031 113.416 -0.00444031 111.519 -0.00444031C111.832 1.01611 112.249 2.00131 112.443 3.07045C113.29 7.74464 111.123 11.5971 107.98 11.0051C105.976 10.6296 104.509 9.06119 103.775 6.31764C103.155 3.9938 103.41 1.82459 104.656 -0.00444031C102.649 -2.23592e-05 100.641 -2.23592e-05 98.6342 -2.23592e-05Z" fill="#927628" fill-opacity="0.1"/>
<path d="M94.9018 194.96C94.8005 195.406 94.7483 195.702 94.6685 195.98C93.3487 200.517 91.7067 204.79 89.6257 208.699C86.7498 214.103 83.0022 217.814 78.6653 220.358C77.456 221.065 76.2191 221.679 74.9914 222.307C73.601 223.018 72.9749 224.67 73.4169 227.414C73.9172 230.529 74.4574 233.679 75.3137 236.612C78.1374 246.301 83.4012 252.159 90.215 255.251C97.6856 258.644 105.076 258.088 112.292 253.661C122.605 247.33 129.802 236.784 133.2 221.233C134.228 216.524 134.676 211.668 134.118 206.734C133.992 205.611 133.688 204.485 133.317 203.473C132.859 202.232 132.074 201.489 131.049 201.618C130.027 201.741 129.357 202.651 129.023 203.986C128.799 204.882 128.685 205.841 128.569 206.787C128.182 209.861 128.053 213.051 127.399 215.998C124.474 229.163 118.118 237.955 109.511 243.327C103.275 247.224 96.8569 246.676 90.6754 242.66C86.3692 239.864 83.5915 235.035 82.3392 228.426C82.1367 227.352 82.2533 226.822 83.0298 226.354C87.3974 223.712 90.9516 219.532 93.8214 214.138C97.5045 207.215 100.202 199.563 101.958 191.213C102.814 187.144 103.686 183.08 104.545 179.011C104.65 178.512 104.739 177.999 104.782 177.487C104.997 175.004 104.03 172.786 102.474 172.141C100.939 171.5 99.2202 172.499 98.6187 174.818C97.7009 178.348 95.9085 180.601 93.9595 182.912C89.2267 188.527 83.6805 191.748 78.073 194.902C75.3536 196.431 72.671 198.11 70.0315 199.908C63.1808 204.582 57.2326 211.187 51.9289 218.839C45.4497 228.187 41.6929 239.634 40.6463 252.835C39.5996 266.027 46.3797 277.46 52.4077 280.796C55.9988 282.78 59.6972 283.831 63.5185 283.853C66.4711 283.871 69.4238 283.61 72.3764 283.478C72.7294 283.46 73.0854 283.473 73.5304 283.473C73.4199 283.871 73.3555 284.162 73.2603 284.436C72.0019 288.108 70.6607 291.726 69.5128 295.464C68.9235 297.381 68.6626 299.506 68.2943 301.556C68.2053 302.042 68.2544 302.594 68.2912 303.111C68.5521 306.694 70.8264 308.298 72.9442 306.354C74.3653 305.046 75.3444 303.129 76.1455 301.039C76.7102 299.563 77.1553 297.995 77.72 296.519C79.5063 291.85 81.308 287.189 83.1311 282.55C84.0366 280.244 84.9942 277.986 85.9364 275.711C86.2219 275.022 86.5042 274.328 86.8449 273.696C87.8271 271.881 87.9929 270.233 87.3145 268.598C86.6332 266.959 85.2397 265.956 83.8524 266.513C82.8365 266.919 81.8052 267.622 80.9826 268.563C80.0373 269.645 79.3375 271.156 78.4873 272.428C78.2479 272.786 77.852 273.202 77.5573 273.157C74.4788 272.72 71.431 273.241 68.3771 273.652C65.2649 274.072 62.1496 274.399 59.0373 273.581C51.889 271.704 47.4478 263.959 47.5675 253.475C47.6657 244.785 49.8387 237.01 52.8834 229.689C55.8606 222.528 60.0134 217.195 65.36 213.877C67.6896 212.433 70.0407 211.054 72.4132 209.769C78.6039 206.415 84.678 202.687 90.5802 198.388C92.0105 197.363 93.3886 196.175 94.9018 194.96Z" fill="#927628" fill-opacity="0.1"/>
<path d="M230.754 131.531C230.324 132.039 229.925 132.477 229.554 132.963C228.777 133.974 228.808 134.376 229.683 135.247C231.279 136.833 233.323 136.722 235.091 134.955C236.712 133.334 237.414 130.652 236.926 127.869C236.537 125.651 235.628 123.87 234.492 122.351C231.494 118.344 228.032 115.317 224.241 113.197C220.945 111.354 217.547 109.883 214.171 108.359C210.365 106.64 206.577 104.873 202.977 102.342C199.481 99.8854 196.559 96.4438 194.036 92.2203C191.268 87.5858 189.948 82.0678 189.202 76.1831C189.012 74.6854 188.865 73.1789 188.671 71.4117C194.073 71.6591 199.18 70.1791 204.134 67.2456C203.456 69.5783 202.775 71.827 201.599 73.687C201.209 74.3055 200.813 74.9638 200.559 75.7015C199.512 78.719 200.924 82.2048 203.235 82.1562C211.166 81.9971 218.882 80.2034 226.227 75.6883C229.732 73.5323 232.85 70.5767 235.561 66.7154C235.72 66.4901 235.867 66.225 236.058 66.0748C237.629 64.8113 238.074 62.81 237.513 60.5303C236.788 57.5968 236.003 54.6589 234.977 51.9286C230.963 41.2416 224.413 35.3348 216.479 32.282C208.176 29.0878 199.889 29.6179 191.707 33.1611C180.627 37.959 171.232 46.4989 164.068 59.7483C161.358 64.7627 159.222 70.241 158.123 76.457C157.972 77.3053 157.84 78.1889 157.831 79.0548C157.816 80.5392 158.292 81.7011 159.261 82.3064C160.234 82.9161 161.14 82.6024 161.892 81.5863C162.291 81.0473 162.61 80.3625 162.92 79.7042C166.262 72.5648 169.857 65.7302 174.298 59.8941C182.204 49.5075 191.375 43.0706 202.09 41.5817C212.231 40.1724 221.055 44.4446 228.317 54.84C229.548 56.6028 230.456 58.8294 231.518 60.8307C231.896 61.542 231.795 62.0015 231.325 62.6156C226.988 68.2882 221.77 71.3985 216.187 73.3865C213.922 74.195 211.59 74.6191 209.284 75.2067C209.021 75.273 208.744 75.2642 208.336 75.2995C208.486 74.734 208.585 74.332 208.701 73.9476C209.782 70.4221 210.884 66.9098 211.946 63.3755C212.277 62.2754 212.593 61.14 212.762 59.9781C213.029 58.1579 212.691 56.5188 211.605 55.3878C210.491 54.2303 209.291 54.301 208.14 55.2685C207.495 55.8119 206.912 56.5144 206.317 57.1771C202.403 61.5332 198.18 64.9483 193.171 65.8318C191.82 66.0704 190.445 66.0483 189.086 66.1588C188.533 66.203 188.306 65.8539 188.235 65.0631C188.131 63.9145 187.993 62.757 187.757 61.6525C187.428 60.1062 186.652 59.28 185.768 59.3286C184.902 59.3772 184.162 60.1857 183.941 61.7452C183.638 63.9012 183.395 66.0969 183.318 68.2882C183.094 74.681 183.662 80.9633 185.037 87.0468C187.269 96.9298 191.639 104.423 197.735 109.852C201.093 112.843 204.717 115.052 208.471 116.793C212.028 118.441 215.592 120.049 219.158 121.661C222.814 123.318 226.181 125.757 229.173 129.225C229.585 129.702 229.962 130.246 230.346 130.767C230.438 130.904 230.509 131.076 230.754 131.531Z" fill="#927628" fill-opacity="0.1"/>
<path d="M276.977 301.45C277.459 304.777 277.969 308.099 278.417 311.439C279.991 323.142 280.958 334.916 280.356 346.866C280.283 348.307 280.16 349.743 280.108 351.187C280.016 353.913 280.903 356.113 282.437 357.072C284.543 358.384 286.915 356.767 287.689 353.356C288.122 351.452 288.459 349.491 288.708 347.525C290 337.315 293.524 328.695 297.9 320.695C300.245 316.405 303.192 313.113 306.54 310.595C310.168 307.869 313.999 307.215 317.992 308.501C320.251 309.23 321.927 311.05 323.016 313.997C324.72 318.609 325.576 323.522 325.232 328.731C324.76 335.87 320.607 340.642 315.653 339.93C315.076 339.846 314.502 339.709 313.775 339.568C313.956 339.007 314.066 338.578 314.223 338.185C314.784 336.798 315.392 335.45 315.923 334.041C316.783 331.761 316.595 329.42 315.481 327.812C314.376 326.217 312.694 325.899 311.141 327.03C309.699 328.081 308.674 329.765 307.876 331.739C305.242 338.238 304.021 345.294 303.965 352.782C303.935 356.825 304.183 360.832 305.331 364.569C305.773 366.009 306.372 367.432 307.108 368.589C308.287 370.449 310.021 370.803 311.393 369.782C312.734 368.784 313.489 366.619 313.21 364.167C313.063 362.873 312.756 361.605 312.449 360.363C311.534 356.674 311.424 349.663 312.292 346.257C312.516 346.376 312.75 346.469 312.964 346.619C322.866 353.409 331.715 342.82 332.804 331.289C333.694 321.861 331.985 313.445 327.623 306.265C324.763 301.56 320.926 299.811 316.73 299.382C311.203 298.817 306.123 300.672 301.498 305.148C297.937 308.589 294.88 312.76 292.324 317.69C291.007 320.231 289.758 322.846 288.478 325.426C288.318 325.744 288.155 326.058 287.879 326.597C287.806 326.04 287.747 325.722 287.72 325.4C286.658 312.287 284.865 299.4 281.888 286.888C281.618 285.753 281.345 284.6 280.955 283.544C280.258 281.671 279.15 280.588 277.628 280.694C276.142 280.796 275.126 281.984 274.546 283.893C274.187 285.064 273.923 286.296 273.647 287.52C271.057 299.029 266.959 309.407 261.944 319.016C258.359 325.886 253.427 330.273 247.841 333.082C244.366 334.832 242.601 333.635 241.079 328.775C240.091 325.625 239.787 322.232 239.55 318.83C239.52 318.393 239.523 317.942 239.468 317.514C239.296 316.197 238.808 315.212 237.896 314.792C236.994 314.377 236.082 314.615 235.517 315.64C234.95 316.674 234.391 317.933 234.244 319.197C233.47 325.833 234.192 332.084 237.052 337.584C239.67 342.616 243.28 344.344 247.491 342.691C248.163 342.426 248.838 342.135 249.467 341.72C256.303 337.209 262.496 331.386 266.965 322.51C270.234 316.02 273.174 309.186 276.259 302.506C276.425 302.148 276.569 301.768 276.725 301.397C276.821 301.406 276.897 301.428 276.977 301.45Z" fill="#927628" fill-opacity="0.1"/>
<path d="M207.526 235.631C207.839 236.197 208.026 236.519 208.198 236.855C210.792 241.878 213.965 245.96 217.679 249.23C223.078 253.983 228.418 258.87 233.796 263.676C237.322 266.826 239.606 271.315 240.809 276.988C241.208 278.865 241.3 280.77 241.009 282.696C240.425 286.561 237.574 289.199 235.002 288.245C234.901 288.205 234.806 288.121 234.71 288.059C234.95 286.464 235.192 284.909 235.407 283.354C235.465 282.925 235.484 282.475 235.468 282.037C235.413 280.58 235.054 279.343 234.041 278.781C233.007 278.207 232.08 278.662 231.399 279.824C230.736 280.951 230.1 282.157 229.631 283.46C227.479 289.415 221.516 290.745 218.124 283.699C217.793 283.014 217.529 282.077 217.541 281.264C217.602 277.019 221.282 272.406 224.296 272.747C224.296 273.091 224.309 273.44 224.293 273.785C224.232 275.123 224.395 275.358 225.334 275.176C226.727 274.911 227.829 273.992 228.385 272.062C228.955 270.078 228.609 268.253 227.682 266.676C226.113 264.012 224.057 263.464 221.832 264.295C220.714 264.71 219.591 265.369 218.618 266.252C215.178 269.376 212.882 273.794 211.866 279.502C211.528 281.401 211.611 283.328 212.028 285.205C214.048 294.297 221.537 299.935 227.792 296.895C229.397 296.113 230.849 294.682 232.372 293.546C232.344 293.44 232.316 293.33 232.289 293.219C232.402 293.33 232.528 293.418 232.626 293.551C236.506 298.768 241.567 297.222 244.581 293.78C248.028 289.844 249.354 284.489 248.817 278.379C247.948 268.479 244.458 260.725 238.765 255.088C237.347 253.683 235.788 252.556 234.241 251.456C228.894 247.661 223.98 242.837 219.048 238.097C215.537 234.721 213.011 229.919 211.028 224.578C209.889 221.512 209.343 218.216 209.595 214.703C209.935 209.959 211.261 208.655 214.398 210.096C215.159 210.445 215.877 211.01 216.599 211.531C217.166 211.942 217.311 212.592 216.991 213.436C216.445 214.88 215.877 216.312 215.395 217.796C215.211 218.357 215.076 219.174 215.233 219.665C215.331 219.974 216.025 220.04 216.433 219.97C217.507 219.78 218.606 219.616 219.631 219.148C223.679 217.301 225.088 211.081 222.532 206.212C221.826 204.865 220.886 203.681 219.901 202.753C218.842 201.754 217.642 200.977 216.436 200.407C209.027 196.899 203.263 202.364 202.541 213.581C202.059 221.087 201.66 228.607 201.206 236.122C200.979 239.85 200.552 243.522 199.515 247.003C198.953 248.881 198.036 250.171 196.713 250.904C196.108 251.24 195.648 251.081 195.23 250.361C193.791 247.865 193.588 244.441 195.421 242.188C195.961 241.525 196.437 240.677 196.799 239.789C198.201 236.36 196.759 232.574 193.99 232.34C192.262 232.194 190.817 233.148 189.61 234.836C186.916 238.609 186.019 243.23 186.689 248.492C187.167 252.265 188.367 255.534 190.261 258.247C192.597 261.596 195.384 262.638 198.564 261.454C203.579 259.59 206.716 254.31 207.388 246.239C207.639 243.23 207.498 240.16 207.532 237.116C207.529 236.727 207.526 236.347 207.526 235.631Z" fill="#927628" fill-opacity="0.1"/>
<path d="M171.026 332.689C170.968 331.108 170.897 329.632 170.857 328.161C170.725 323.027 170.596 317.911 171.247 312.8C171.824 308.267 169.313 304.852 166.152 305.726C165.314 305.956 164.488 306.416 163.718 306.959C162.77 307.626 161.855 308.421 160.983 309.278C157.659 312.548 154.163 315.371 150.545 317.898C147.353 320.125 144.24 322.546 141.512 325.868C140.72 326.835 138.265 326.751 137.528 325.802C137.371 325.603 137.285 325.276 137.19 324.989C136.128 321.764 133.544 321.105 131.801 323.646C130.622 325.36 130.205 327.542 130.337 329.844C130.65 335.305 132.54 339.568 135.757 342.298C137.985 344.194 139.861 343.61 141.398 341.021C142.034 339.952 142.672 338.892 143.28 337.792C145.717 333.387 148.697 329.963 152.196 327.45C156.235 324.547 160.268 321.618 164.304 318.702C164.396 318.636 164.507 318.618 164.651 318.561C164.682 318.768 164.719 318.91 164.722 319.06C164.851 325.157 165.001 331.253 165.084 337.35C165.108 339.104 164.976 340.867 164.835 342.612C164.663 344.715 165.05 346.46 166.302 347.631C167.585 348.824 168.902 348.647 170.154 347.472C170.501 347.145 170.814 346.729 171.103 346.301C173.613 342.541 176.103 338.746 178.626 335C182.533 329.199 185.534 322.537 187.864 315.212C190.138 308.059 192.431 300.924 194.718 293.78C194.856 293.352 195.015 292.941 195.169 292.517C195.282 292.605 195.35 292.623 195.368 292.671C197.894 300.288 200.282 307.988 201.458 316.312C202.29 322.205 202.646 328.161 201.845 334.134C201.068 339.926 197.511 343.085 193.591 341.613C192.821 341.326 192.419 340.867 192.44 339.568C192.465 338.057 192.36 336.511 192.155 335.026C191.829 332.676 190.442 331.227 188.963 331.483C187.468 331.744 186.434 333.445 186.446 335.866C186.483 343.765 186.299 351.678 187.109 359.537C187.631 364.6 188.398 369.561 189.841 374.258C190.276 375.68 190.758 377.143 191.44 378.322C191.995 379.285 192.809 380.182 193.628 380.544C195.669 381.45 197.449 378.866 196.986 375.861C196.903 375.322 196.765 374.77 196.572 374.293C194.217 368.466 193.324 362.042 192.876 355.446C192.738 353.418 192.649 351.382 192.529 349.217C192.849 349.265 193.057 349.27 193.26 349.332C200.252 351.501 206.412 345.886 207.925 335.848C209.134 327.825 208.585 319.877 207.167 312.018C205.97 305.377 204.036 299.153 201.835 293.091C200.918 290.568 199.969 288.064 199.085 285.514C198.689 284.37 198.398 283.151 198.1 281.945C197.71 280.381 197.02 279.316 195.847 279.091C194.678 278.87 193.742 279.572 193.152 280.986C192.333 282.943 191.526 284.927 190.857 286.994C188.641 293.829 186.523 300.734 184.291 307.556C183.153 311.037 181.928 314.47 180.596 317.801C178.251 323.663 174.807 328.148 171.327 332.557C171.281 332.614 171.213 332.61 171.026 332.689Z" fill="#927628" fill-opacity="0.1"/>
<path d="M243.78 23.1633C251.208 19.1783 258.764 16.8545 266.548 16.1343C272.3 15.6042 277.898 16.9252 283.37 19.3639C286.397 20.7113 289.061 23.0484 291.295 26.3133C293.671 29.7858 293.625 32.2334 291.219 35.6617C289.211 38.5245 286.814 39.8057 284.009 39.47C283.567 39.4169 283.134 39.1828 282.542 38.9751C282.836 38.3964 283.048 38.0783 283.177 37.7028C283.518 36.7087 283.954 35.7235 284.113 34.6632C284.353 33.0904 283.911 31.7209 282.971 30.8019C282.026 29.8786 281.013 29.8874 280.053 30.7357C279.635 31.1024 279.248 31.6237 278.96 32.198C277.91 34.2921 276.547 35.8428 275.047 37.2035C273.576 38.5333 272.014 39.3286 270.259 39.4655C269.384 39.5318 268.497 39.8632 267.662 40.274C266.861 40.6672 266.269 41.5243 266.256 42.8541C266.241 44.1839 266.821 45.0145 267.601 45.5137C269.654 46.8258 271.784 47.3472 273.936 46.1234C275.461 45.2575 276.925 44.1662 278.417 43.1722C278.665 43.0043 278.902 42.8055 279.132 42.6288C281.827 47.4178 285.39 46.8435 288.911 45.8892C292.198 44.9968 294.776 42.2577 296.768 38.4406C299.177 33.8238 299.279 28.4207 297.032 23.636C294.932 19.1606 292.029 16.0283 288.668 13.7354C285.175 11.3497 281.415 10.391 277.652 9.37931C271.769 7.79768 265.9 8.25273 259.995 9.16283C255.044 9.92713 250.293 11.5839 245.655 14.1419C242.549 15.8516 239.25 16.205 235.959 16.4613C235.579 16.4922 235.186 16.3376 234.808 16.2139C233.946 15.9311 233.108 15.8428 232.279 16.4436C232.043 16.6115 231.742 16.6336 231.469 16.6468C230.996 16.6733 230.521 16.5982 230.048 16.638C226.521 16.9517 223.679 14.7427 221.086 11.6192C221.064 11.5927 221.046 11.5662 221.024 11.5397C219.944 10.1701 219.112 9.94922 218.36 10.8416C217.596 11.7473 217.449 13.4703 218.194 15.0122C220.527 19.8278 223.599 23.1589 227.746 23.8127C230.205 24.2015 232.697 24.1043 235.174 24.3076C235.659 24.3473 236.26 24.5638 236.589 25.0188C240.984 31.1333 244.603 38.0518 246.923 46.2559C247.693 48.9774 247.936 51.8314 247.804 54.7605C247.749 56.0019 247.669 57.2478 247.69 58.4848C247.755 62.5802 249.958 65.7788 252.77 65.1868C262.453 63.1457 271.888 65.7833 281.342 68.0232C287.173 69.406 292.968 71.1113 298.769 72.7415C299.852 73.0464 300.908 73.6119 301.952 74.1509C303.078 74.7296 303.956 74.6147 304.502 73.6693C305.04 72.7415 305.049 71.3278 304.45 69.9494C303.213 67.1042 301.544 64.8599 299.309 63.8968C296.756 62.7967 294.144 61.8734 291.513 61.2637C280.501 58.6969 269.448 56.5586 258.322 55.2597C257.404 55.1537 256.487 55.0476 255.566 55.0079C255.041 54.9858 254.82 54.7561 254.863 53.9387C255.167 48.0805 253.985 42.7657 251.996 37.7381C249.968 32.6 247.414 28.0672 244.415 24.0425C244.21 23.7421 243.992 23.4505 243.78 23.1633Z" fill="#927628" fill-opacity="0.1"/>
<path d="M290.771 233.025C292.403 232.83 294.039 232.671 295.666 232.433C301.544 231.567 307.431 230.767 313.296 229.742C316.209 229.234 319.02 227.971 321.693 226.177C323.329 225.077 324.803 223.654 325.963 221.631C328.332 217.491 328.133 212.481 325.288 209.009C324.048 207.493 322.608 206.243 321.144 205.2C315.346 201.07 309.505 197.071 303.68 193.02C303.391 192.817 303.109 192.596 302.698 192.287C303.06 191.978 303.287 191.765 303.53 191.584C306.823 189.15 310.303 188.823 313.882 189.72C314.422 189.857 314.95 190.502 315.46 190.445C317.694 190.197 319.005 187.392 318.428 184.259C318.056 182.24 317.203 180.65 315.914 179.833C314.711 179.073 313.391 178.414 312.096 178.273C305.954 177.593 300.463 180.093 295.721 185.801C295.196 186.433 294.828 186.477 294.263 185.974C292.959 184.816 291.618 183.742 290.276 182.669C289.816 182.302 289.331 181.966 288.828 181.75C287.812 181.313 286.845 181.856 286.351 183.04C285.838 184.268 285.973 185.806 286.753 186.892C287.109 187.392 287.532 187.803 287.953 188.187C289.199 189.322 290.457 190.427 291.793 191.615C291.575 192.057 291.384 192.437 291.197 192.817C289.359 196.577 287.987 200.619 287.64 205.258C287.575 206.124 287.579 207.034 287.692 207.887C288.002 210.233 289.567 211.359 291.004 210.157C291.725 209.552 292.342 208.593 292.879 207.648C294.678 204.476 296.424 201.251 298.174 198.021C298.514 197.394 298.803 197.319 299.294 197.712C305.678 202.846 311.967 208.187 317.808 214.553C318.115 214.889 318.409 215.242 318.854 215.755C318.287 216.13 317.854 216.457 317.403 216.709C314.066 218.574 310.558 219.329 307.032 219.828C301.231 220.65 295.414 221.211 289.617 222.064C287.017 222.448 284.445 223.23 281.873 223.937C281.093 224.153 280.32 224.622 279.614 225.165C276.854 227.303 276.238 231.986 278.328 235.353C279.077 236.559 280.016 237.597 280.992 238.406C283.53 240.504 286.121 242.47 288.717 244.419C293.131 247.728 297.342 251.505 301.314 255.808C302.575 257.173 303.671 258.856 304.819 260.434C305.497 261.366 305.617 262.484 305 263.548C304.205 264.918 303.394 266.287 302.489 267.502C301.86 268.351 301.734 268.726 302.406 269.592C303.809 271.399 305.509 271.938 307.32 271.58C311.586 270.732 314.161 264.9 312.946 258.954C312.354 256.064 311.197 253.643 309.708 251.611C308.235 249.601 306.694 247.657 305.058 245.938C300.819 241.481 296.366 237.5 291.673 234.094C291.357 233.864 291.05 233.617 290.737 233.374C290.74 233.259 290.755 233.14 290.771 233.025Z" fill="#927628" fill-opacity="0.1"/>
<path d="M139.98 144.153C140.674 142.567 141.352 141.189 141.902 139.709C142.316 138.591 142.675 137.381 142.872 136.148C143.148 134.416 142.743 132.87 141.754 131.761C140.757 130.648 139.594 130.484 138.529 131.35C137.648 132.066 136.813 133.024 136.141 134.111C134.548 136.687 132.961 139.298 131.558 142.086C127.476 150.201 122.949 157.761 118.102 164.94C117.464 165.885 116.866 166.906 116.338 167.988C115.653 169.393 115.432 170.935 116.147 172.486C116.77 173.842 118.01 174.518 119.272 173.988C120.168 173.608 121.107 173.108 121.838 172.309C123.719 170.246 125.653 168.205 127.277 165.757C130.122 161.467 132.767 156.903 135.459 152.406C135.886 151.695 136.187 151.394 136.834 151.849C138.746 153.192 140.818 153.692 142.914 153.833C147.844 154.169 152.776 154.553 157.708 154.606C159.857 154.628 162.064 154.186 164.148 153.409C168.282 151.871 170.375 147.772 170.434 141.626C170.483 136.188 169.703 130.921 168.537 125.792C167.463 121.065 166.256 116.395 165.062 111.726C164.16 108.2 162.546 106.477 159.946 106.746C155.916 107.157 151.895 107.794 147.884 108.492C141.601 109.583 135.346 111.05 129.005 111.328C122.221 111.624 115.454 111.496 108.747 109.733C108.422 109.649 108.081 109.578 107.753 109.609C106.798 109.707 106.105 110.568 105.902 111.836C105.712 113.02 106.037 114.319 106.847 114.911C107.48 115.375 108.198 115.728 108.901 115.83C113.726 116.537 118.551 117.261 123.385 117.8C130.763 118.626 138.154 118.454 145.545 118.136C149.615 117.959 153.688 118.012 157.757 118.008C158.021 118.008 158.448 118.313 158.525 118.618C160.136 125.112 162.061 131.465 162.92 138.308C163.009 139.02 163.073 139.735 163.123 140.455C163.294 142.978 163.055 143.685 161.306 144.167C159.452 144.675 157.549 145.099 155.67 145.059C150.628 144.948 145.585 144.573 140.545 144.299C140.392 144.295 140.235 144.224 139.98 144.153Z" fill="#927628" fill-opacity="0.1"/>
<path d="M348.623 149.115C350.324 152.251 352.128 154.924 353.089 158.414C353.666 160.504 353.758 162.709 353.359 164.922C353.184 165.894 353.009 166.866 352.822 167.829C352.503 169.473 352.844 170.524 353.964 171.129C355.419 171.92 356.763 171.381 357.862 169.985C360.09 167.158 361.333 163.588 361.103 159.241C360.854 154.535 359.341 150.559 357.248 147.06C355.241 143.707 352.712 141.392 349.771 140.049C348.577 139.506 347.374 139.311 346.165 139.992C345.99 140.089 345.784 140.102 345.591 140.111C343.884 140.186 342.967 141.237 342.623 143.654C342.365 145.461 342.169 147.286 341.963 149.11C341.266 155.229 339.406 160.522 336.518 165.094C335.524 166.667 334.499 168.209 333.596 169.888C331.399 173.97 331.248 177.986 333.114 182.408C335.56 188.209 339.188 191.271 343.86 191.964C347.604 192.521 351.343 193.17 355.072 193.891C356.309 194.129 357.524 194.664 358.724 195.172C367.745 198.98 372.576 208.2 374.755 220.875C375.572 225.625 375.43 230.361 374.752 235.079C374.298 238.229 373.088 240.831 371.557 243.129C371.008 243.95 370.403 244.427 369.553 244.237C368.85 244.083 368.669 244.573 369.025 245.532C369.669 247.268 370.747 247.997 372.057 248.046C373.883 248.112 375.553 247.295 376.947 245.642C380.378 241.578 382.588 236.453 382.978 229.972C383.414 222.788 382.109 216.047 380.246 209.477C377.201 198.741 372.063 190.961 364.593 186.451C360.802 184.162 356.794 183.477 352.755 183.014C349.753 182.669 346.745 182.408 343.746 182.037C341.349 181.746 339.624 179.819 338.24 177.12C337.764 176.192 337.773 175.34 338.341 174.54C339.099 173.475 339.851 172.402 340.652 171.403C345.21 165.695 347.924 158.609 348.501 149.897C348.497 149.751 348.537 149.609 348.623 149.115Z" fill="#927628" fill-opacity="0.1"/>
<path d="M174.028 246.849C173.816 248.863 173.537 250.666 173.448 252.49C173.171 258.251 172.938 264.021 172.751 269.791C172.714 270.926 172.567 271.368 171.695 271.426C168.122 271.66 164.703 272.998 161.395 274.88C159.372 276.029 157.343 277.195 155.409 278.614C147.942 284.087 140.011 287.776 132.065 291.421C131.055 291.885 130.011 292.234 129.051 292.861C128.256 293.378 127.436 294.05 126.85 294.951C125.245 297.416 125.877 300.96 128.053 302.223C129.167 302.868 130.303 302.793 131.417 302.285C139.437 298.605 147.531 295.216 155.146 289.91C160.606 286.106 166.21 282.886 172.174 281.039C173.988 280.478 175.731 279.426 177.481 278.49C178.856 277.756 179.648 276.175 179.807 274.129C180.004 271.58 180.016 269.005 180.154 266.447C180.464 260.73 180.783 255.013 181.145 249.305C181.222 248.077 181.612 246.884 181.658 245.656C181.716 244.123 181.661 242.554 181.483 241.043C181.342 239.85 180.544 239.395 179.804 239.117C177.92 238.415 176.004 238.216 174.089 238.799C167.69 240.747 161.508 243.747 155.37 246.946C153.482 247.931 151.628 249.044 149.759 250.1C149.483 250.255 149.2 250.392 148.85 250.573C148.774 250.056 148.725 249.672 148.66 249.292C148.344 247.507 148.083 245.695 147.681 243.946C147.307 242.311 146.588 240.955 145.52 240.089C144.17 238.993 142.786 238.923 141.49 240.217C140.186 241.52 139.75 243.425 140.066 245.616C140.388 247.851 140.803 250.06 141.183 252.278C141.81 255.954 141.539 259.497 140.539 262.983C139.931 265.09 139.326 267.22 138.912 269.415C138.406 272.097 138.918 274.103 140.134 275.203C141.325 276.281 143.037 276.082 144.388 274.328C145.318 273.118 146.149 271.629 146.766 270.056C147.917 267.136 148.516 263.897 148.817 260.566C148.887 259.767 149.124 259.409 149.639 259.148C157.457 255.216 165.268 251.253 173.079 247.304C173.359 247.171 173.635 247.038 174.028 246.849Z" fill="#927628" fill-opacity="0.1"/>
<path d="M291.922 121.75C290.117 119.678 289.168 117.001 288.622 113.987C288.573 113.709 288.739 113.241 288.905 113.011C290.267 111.129 290.587 108.58 289.764 105.828C288.911 102.969 287.425 101.728 285.495 101.697C282.892 101.657 281.505 103.672 280.651 106.87C279.724 110.352 279.801 113.753 280.949 117.129C282.668 122.174 285.274 125.823 288.99 127.895C288.932 128.182 288.889 128.478 288.816 128.761C287.097 135.375 287.919 140.893 291.575 145.563C295.93 151.129 300.908 152.583 306.326 149.185C316.448 142.837 317.694 129.017 315.26 119.589C312.007 106.976 306.191 97.6057 297.726 91.7961C289.721 86.3046 281.262 83.8571 272.398 84.5375C269.943 84.7274 267.515 85.3283 265.222 86.6713C264.151 87.2987 263.159 88.1955 262.058 89.0261C261.916 88.7522 261.723 88.3722 261.53 87.9923C260.118 85.2576 258.534 82.7438 256.343 81.3344C255.33 80.6806 254.17 80.3095 253.059 80.2167C251.659 80.0974 250.413 81.6084 250.038 83.4153C249.572 85.6552 250.48 87.1882 252.07 86.9673C252.472 86.9099 252.954 87.1485 253.316 87.4533C256.186 89.892 258.064 93.5722 259.446 97.8355C259.762 98.8163 259.995 99.8545 260.314 100.835C260.839 102.457 261.643 103.225 262.555 103.057C263.534 102.881 264.347 101.706 264.421 99.9384C264.479 98.5247 264.384 97.0402 264.139 95.6707C263.942 94.5883 264.166 94.1509 264.771 93.7224C266.606 92.4191 268.586 91.8271 270.587 91.6769C281.059 90.8816 290.893 94.0007 299.791 102.183C304.825 106.813 308.17 113.488 310.248 121.502C311.019 124.476 311.102 127.524 310.65 130.63C309.776 136.621 305.789 142.227 301.578 143.142C298.941 143.716 296.67 142.417 294.81 139.731C292.213 135.98 292.852 129.905 296.12 127.409C298.818 125.346 301.513 125.872 304.128 127.842C304.619 128.213 305.043 128.735 304.994 129.729C304.981 129.994 305.239 130.427 305.442 130.546C306.574 131.222 307.882 130.268 308.33 128.5C308.68 127.122 308.471 125.81 308.078 124.533C306.602 119.718 303.045 117.018 299.052 117.588C296.39 117.959 294.006 119.232 291.922 121.75Z" fill="#927628" fill-opacity="0.1"/>
<path d="M93.223 324.401C92.4895 323.398 91.7958 322.55 91.182 321.591C90.3686 320.323 89.6596 318.923 88.834 317.673C86.8543 314.673 84.1257 315.221 83.03 319.042C82.4376 321.105 82.1921 323.451 82.0724 325.7C81.8053 330.661 81.7409 335.64 81.5414 340.606C81.4769 342.201 81.2805 343.792 81.1055 345.378C80.8017 348.126 79.7674 350.18 78.113 351.576C77.5882 352.018 77.7078 352.517 77.935 353.083C78.6747 354.951 80.507 355.967 82.1982 355.34C84.5155 354.483 86.2067 352.46 87.3177 349.416C88.4135 346.411 88.8984 343.151 89.0856 339.815C89.2606 336.701 89.279 333.564 89.365 330.441C89.3742 330.083 89.365 329.729 89.365 329.128C89.6504 329.438 89.8284 329.636 90.0126 329.822C91.5104 331.355 92.9683 332.976 94.5183 334.39C95.7306 335.495 97.0965 335.724 98.4377 334.779C99.9539 333.71 100.577 331.788 100.611 329.473C100.632 327.953 100.543 326.425 100.451 324.909C100.058 318.326 100.282 311.753 100.534 305.179C100.54 304.989 100.586 304.803 100.648 304.401C100.927 304.777 101.148 304.998 101.307 305.289C102.974 308.355 104.739 311.32 106.258 314.527C108.382 319.011 109.57 324.052 109.908 329.477C109.966 330.396 109.96 331.32 109.954 332.243C109.932 335.853 108.913 338.782 106.762 340.606C105.218 341.918 103.511 342.846 101.857 343.889C100.608 344.675 99.3002 345.28 98.0786 346.137C97.4187 346.601 96.8141 347.335 96.3107 348.112C95.4513 349.442 95.1812 351.068 95.6416 352.809C96.102 354.549 97.0627 355.526 98.3119 355.676C99.3002 355.795 100.328 355.747 101.304 355.49C104.767 354.585 108.026 352.888 110.966 350.03C115.362 345.753 117.608 339.824 117.691 332.181C117.743 327.595 117.222 323.138 116.203 318.812C114.453 311.386 111.685 304.865 107.636 299.55C105.973 297.363 104.104 295.618 101.903 294.748C101.363 294.536 101.271 294.129 101.372 293.427C101.501 292.526 101.596 291.611 101.694 290.697C101.805 289.658 101.958 288.85 102.778 288.298C103.932 287.52 104.217 285.002 103.557 283.177C102.624 280.588 100.387 279.811 98.5881 281.463C97.4617 282.497 96.6606 284.008 96.2739 285.771C95.5679 288.969 94.8528 292.208 94.4814 295.512C93.53 303.968 93.2691 312.512 93.3673 321.074C93.3765 321.998 93.3918 322.921 93.398 323.845C93.3949 323.924 93.355 323.99 93.223 324.401Z" fill="#927628" fill-opacity="0.1"/>
<path d="M75.9306 45.3149C80.0557 48.1291 83.8033 51.5265 87.2808 55.6838C87.1304 55.8473 87.0721 55.9577 87.0046 55.971C84.5952 56.4481 82.4836 57.9856 80.4885 59.8544C78.8066 61.4316 77.1891 63.1457 75.5347 64.7848C71.8762 68.4075 67.8769 70.5856 63.3804 70.2454C58.3499 69.8654 53.8288 67.5593 50.1672 62.3549C49.1175 60.8617 48.3594 59.0989 47.9358 57.0578C47.012 52.6266 48.4146 48.244 51.3795 46.4547C54.0406 44.8466 56.6648 45.0012 59.1755 47.1042C60.041 47.8287 60.8575 48.6858 61.6463 49.5738C61.9532 49.9184 62.1987 50.4706 62.3338 51.0052C62.5578 51.8844 62.9261 51.986 63.4449 51.6635C64.5314 50.992 65.0348 49.7063 65.1851 48.0982C65.4491 45.2972 64.7002 42.9911 63.4295 40.9676C58.3099 32.8209 49.9922 32.8828 44.9187 41.1046C40.1644 48.8095 40.3455 60.5568 45.373 67.8995C48.654 72.6929 52.7392 75.1493 57.3094 76.108C65.2435 77.7736 72.6158 75.5955 79.4265 69.4767C80.9151 68.138 82.4467 66.8966 83.9936 65.7037C86.1513 64.0382 88.4103 63.8703 90.7153 65.0366C91.7681 65.5668 92.8024 66.1809 93.8644 66.658C94.5489 66.9629 95.2732 67.2589 95.9791 67.2633C98.3701 67.2898 99.8311 64.0161 98.8551 60.8705C98.6095 60.0753 98.2412 59.3419 97.8606 58.6571C94.7269 53.0066 90.8197 48.7344 86.3355 45.5491C83.5394 43.5654 80.6972 41.7099 77.7999 39.7439C79.1534 35.781 80.9428 32.2068 84.1041 30.8947C86.1452 30.0465 88.3121 29.8256 90.4268 29.3484C90.6079 29.3087 90.8627 29.3263 90.9885 29.481C91.7742 30.4397 92.3298 29.7549 92.8485 28.9597C93.757 27.5813 93.9104 25.4606 93.2444 23.5653C92.5109 21.4889 91.2586 20.3535 89.7516 19.7526C87.7811 18.9663 85.7769 18.9972 83.7788 19.492C76.8883 21.2062 71.4771 29.3175 70.7804 39.143C70.6484 41.0207 70.8633 42.9734 71.0474 44.8687C71.1334 45.7434 71.4587 46.627 71.8025 47.3869C72.8583 49.7152 74.5249 49.534 75.3843 47.0467C75.5562 46.5475 75.7066 46.035 75.9306 45.3149Z" fill="#927628" fill-opacity="0.1"/>
<path d="M70.3785 137.173C68.6044 132.773 66.8242 128.567 65.1975 124.242C64.0312 121.145 63.0674 117.884 62.0085 114.699C61.7078 113.793 61.3763 112.91 61.0724 112.008C59.8509 108.381 58.5096 107.904 55.5201 109.446C54.6699 109.883 53.9057 110.882 53.2397 111.823C50.4773 115.724 48.7646 120.508 47.8868 125.885C45.7015 139.267 47.408 151.792 52.77 162.952C61.1185 180.323 78.0363 181.366 87.9623 165.461C91.9861 159.011 94.3126 151.452 94.7055 142.77C94.8007 140.707 94.7209 138.582 94.4692 136.546C93.6098 129.539 90.031 124.984 85.0772 124.476C80.2063 123.976 76.4004 127.104 73.1838 132.004C72.2139 133.484 71.4312 135.216 70.3785 137.173ZM57.5888 117.429C57.7515 117.99 57.8742 118.383 57.9847 118.785C59.5286 124.334 61.1154 129.848 63.2424 135.017C65.2159 139.815 67.079 144.706 69.031 149.521C69.7615 151.319 70.5503 153.078 71.422 154.739C72.4717 156.74 74.3777 156.457 75.0929 154.164C75.409 153.157 75.5778 151.863 75.4428 150.798C75.2156 149.013 74.8044 147.228 74.2611 145.58C73.3403 142.779 73.2544 142.801 74.7184 140.42C76.8423 136.961 79.4021 134.451 82.6003 133.621C85.6849 132.821 87.9071 135.158 88.4595 139.572C88.5179 140.045 88.5639 140.522 88.5915 141.003C89.2269 151.293 84.8562 162.276 78.1345 167.277C69.4577 173.731 58.8441 168.324 54.9554 155.446C53.4023 150.303 52.5982 144.904 52.5429 139.311C52.4693 131.787 53.5711 124.728 56.8767 118.648C57.0762 118.273 57.2972 117.924 57.5888 117.429Z" fill="#927628" fill-opacity="0.1"/>
<path d="M120.058 82.9691C120.417 83.2474 120.73 83.4904 121.043 83.729C124.189 86.0882 127.353 88.3811 130.904 89.2205C135.619 90.3338 139.106 87.3738 140.732 80.9015C141.668 77.1772 141.791 73.3733 141.257 69.512C140.45 63.6759 138.943 58.2021 137 52.9756C136.506 51.6502 135.846 50.4088 135.131 49.2999C133.986 47.5283 132.415 47.1484 131.086 48.0982C129.769 49.0392 129.112 51.0803 129.342 53.4969C129.382 53.9255 129.428 54.354 129.477 54.8577C129.223 54.893 129.032 54.9725 128.851 54.9372C125.266 54.2038 121.669 53.5411 118.1 52.6796C116.304 52.2467 114.625 51.2085 113.13 49.6489C111.875 48.3412 110.927 46.7021 110.512 44.5108C110.073 42.1826 110.414 40.2608 111.85 39.0591C113.179 37.9458 114.647 37.0268 116.135 36.4923C119.364 35.3348 122.657 35.401 125.938 36.2007C126.282 36.2846 126.66 36.4481 126.93 36.7441C128.253 38.2197 130.269 38.0916 131.494 36.3862C132.691 34.7207 132.777 32.0345 131.687 30.0332C130.898 28.5841 129.827 27.6166 128.63 27.2367C126.436 26.5386 124.21 25.8627 121.976 25.6285C118.707 25.2883 115.521 26.2294 112.526 28.1688C111.341 28.9376 110.175 29.8742 109.14 31.0007C104.493 36.0814 103.536 44.0204 106.712 51.0759C107.357 52.5073 108.137 53.9034 109.048 54.977C114.625 61.5465 121.083 64.343 128.243 63.8305C129.198 63.7598 130.146 63.2474 131.083 62.8718C131.463 62.7172 131.693 62.6995 131.865 63.3092C132.998 67.3075 133.934 71.3808 133.965 75.7502C133.971 76.8944 133.82 78.0608 133.642 79.1829C133.461 80.3183 132.887 81.0296 132.071 80.981C131.104 80.9236 130.064 80.9457 129.201 80.4288C127.28 79.2845 125.42 77.9061 123.597 76.4615C122.28 75.4232 121.098 74.036 119.794 72.9624C116.77 70.4751 114.03 72.1495 113.173 77.0093C112.894 78.5909 112.82 80.2521 112.688 81.8867C112.59 83.0795 112.578 84.2901 112.48 85.4829C112.038 90.7491 109.542 94.3144 105.872 94.9064C104.988 95.0478 104.088 95.0213 103.204 95.1582C102.916 95.2024 102.649 95.5426 102.369 95.7458C102.523 96.0992 102.624 96.541 102.836 96.7929C107.514 102.342 112.836 101.714 116.856 95.1759C118.766 92.0701 119.643 88.3767 119.874 84.3077C119.892 83.9896 119.904 83.6671 119.929 83.349C119.923 83.2872 119.966 83.2209 120.058 82.9691Z" fill="#927628" fill-opacity="0.1"/>
<path d="M374.743 299.528C374.319 299.4 373.997 299.325 373.684 299.206C367.819 296.983 361.855 295.543 355.845 294.461C355.139 294.333 354.39 294.368 353.688 294.549C352.567 294.836 351.748 295.773 351.459 297.434C351.171 299.095 351.561 300.54 352.488 301.472C353.246 302.236 354.139 302.859 355.035 303.182C357.438 304.052 359.891 304.657 362.3 305.506C366.416 306.959 370.51 308.536 374.62 310.03C375.538 310.361 376.471 310.666 377.41 310.803C380.568 311.267 382.843 308.161 382.662 303.61C382.612 302.342 382.456 301.043 382.183 299.837C380.765 293.626 379.304 287.436 377.834 281.247C377.327 279.122 376.775 277.019 376.201 274.929C376.023 274.275 376.179 273.957 376.483 273.493C377.646 271.717 378.788 269.91 379.872 268.037C380.234 267.41 380.47 266.579 380.636 265.788C380.986 264.118 380.731 262.585 379.826 261.388C378.914 260.182 377.818 259.957 376.71 260.628C376.056 261.021 375.378 261.574 374.899 262.307C371.152 268.055 366.275 269.862 361.1 270.635C352.049 271.987 343.449 269.513 335.174 264.277C333.127 262.983 331.383 261.074 329.775 258.874C329.311 258.242 328.845 257.589 328.314 257.085C327.362 256.175 326.322 255.985 325.321 256.904C324.299 257.84 323.842 259.356 324.124 260.964C324.376 262.386 324.855 263.849 325.499 264.98C327.197 267.949 329.281 270.303 331.69 272.022C339.302 277.456 347.257 280.995 355.83 281.194C360.431 281.3 364.97 280.761 369.378 278.724C369.795 278.53 370.154 278.313 370.351 279.201C371.784 285.744 373.239 292.278 374.684 298.817C374.724 298.963 374.715 299.126 374.743 299.528Z" fill="#927628" fill-opacity="0.1"/>
<path d="M246.987 161.118C246.622 160.319 246.444 159.868 246.226 159.461C244.928 157.01 243.762 154.363 242.282 152.159C239.13 147.462 235.628 146.773 231.632 149.817C228.946 151.863 226.377 154.239 223.422 155.454C222.108 155.993 220.785 156.475 219.471 157.018C217.9 157.672 217.148 158.869 217.24 160.495C217.326 162.019 218.314 163.438 219.8 163.526C221.313 163.614 222.857 163.393 224.352 163.009C227.94 162.086 231.359 160.394 234.594 157.942C236.785 156.285 237.685 156.603 239.106 159.514C240.036 161.419 240.846 163.438 241.739 165.377C242.23 166.446 242.715 167.542 243.314 168.483C244.498 170.343 245.99 170.895 247.66 170.109C250.051 168.987 251.815 166.755 253.037 163.61C253.252 163.053 253.448 162.479 253.715 161.741C253.952 162.148 254.139 162.466 254.32 162.793C257.844 169.115 261.364 175.446 264.9 181.754C265.369 182.594 265.897 183.385 266.465 184.092C269.344 187.674 272.861 186.389 274.184 181.268C274.464 180.186 274.694 179.042 274.798 177.898C275.636 168.691 276.219 159.453 275.523 150.175C274.912 142.055 272.963 134.637 269.172 128.439C268.193 126.839 266.922 125.598 265.738 124.281C265.357 123.862 264.835 123.632 264.353 123.495C262.714 123.022 261.499 124.975 262.107 127.206C262.5 128.646 263.107 129.976 263.684 131.297C265.575 135.605 267.045 140.164 267.859 145.147C268.555 149.406 268.724 153.723 268.555 158.065C268.399 162.072 268.162 166.071 267.957 170.073C267.938 170.422 267.88 170.763 267.816 171.341C267.493 170.926 267.26 170.674 267.064 170.365C264.191 165.832 261.318 161.304 258.457 156.753C257.767 155.653 257.159 154.438 256.447 153.369C254.519 150.467 251.745 150.497 249.928 153.568C249.219 154.761 248.789 156.303 248.249 157.699C247.856 158.715 247.482 159.775 246.987 161.118Z" fill="#927628" fill-opacity="0.1"/>
<path d="M204.478 185.055C202.173 184.14 200.031 183.115 197.83 182.492C196.636 182.152 195.341 182.399 194.104 182.581C193.558 182.66 192.993 183.128 192.526 183.601C191.67 184.467 191.231 185.708 191.412 187.246C191.596 188.801 192.311 189.68 193.33 190.104C193.794 190.299 194.205 190.436 194.604 189.724C194.748 189.468 195.286 189.508 195.599 189.632C198.039 190.621 200.463 191.677 202.9 192.684C203.751 193.033 204.616 193.312 205.479 193.595C205.623 193.643 205.875 193.608 205.939 193.475C206.494 192.309 207.332 191.244 207.035 189.632C206.863 188.699 207.17 188.342 207.621 187.926C211.157 184.697 215.045 183.464 219.186 183.654C223.225 183.835 227.068 185.236 230.754 187.586C237.071 191.615 242.387 197.522 246.644 205.342C248.755 209.221 250.161 213.595 250.618 218.552C251.03 223.049 250.272 226.968 248.095 230.308C247.258 231.593 246.45 232.928 245.711 234.324C244.992 235.68 244.71 237.222 245.352 238.821C245.996 240.425 247.086 240.871 248.243 240.579C249.292 240.314 250.404 239.939 251.309 239.175C255.287 235.817 257.297 230.502 258.123 224.153C258.804 218.909 258.209 213.846 256.855 208.938C254.737 201.268 251.38 194.84 246.978 189.663C239.133 180.433 230.094 175.6 219.923 175.627C217.771 175.631 215.586 176.17 213.48 176.859C209.634 178.127 207.345 180.389 204.478 185.055Z" fill="#927628" fill-opacity="0.1"/>
<path d="M38.8814 321.021C31.2205 319.347 23.6946 320.778 15.9846 321.269C16.224 320.787 16.3683 320.429 16.5524 320.125C20.7543 313.255 24.9868 306.429 29.8885 300.54C30.7202 299.541 31.5213 298.468 32.2579 297.324C32.6416 296.727 32.9608 295.941 33.1173 295.163C33.5961 292.773 32.1536 290.652 30.4839 291.297C29.8516 291.54 29.2531 292.044 28.6884 292.543C25.2631 295.574 22.338 299.471 19.5941 303.654C17.6789 306.57 15.7421 309.473 13.9712 312.565C12.5961 314.964 11.307 317.527 10.2481 320.235C8.5232 324.644 9.86451 328.448 13.3512 329.013C15.2726 329.323 17.2492 329.142 19.1889 328.952C25.9536 328.298 32.6753 328.815 39.3817 330.136C39.8452 330.228 40.0447 330.485 40.1644 331.125C41.0944 336.122 42.0458 341.114 42.9973 346.102C43.3902 348.161 44.403 349.473 45.7259 349.667C47.0365 349.857 48.2672 348.855 48.9302 347.017C49.1082 346.522 49.2648 345.996 49.3753 345.462C50.3605 340.664 52.6226 337.492 55.6611 335.38C58.7887 333.206 62.1527 332.539 65.5872 332.583C66.0936 332.588 66.6491 332.835 67.088 333.206C68.3771 334.289 69.6233 333.763 70.1573 331.744C70.6545 329.866 70.3016 328.179 69.4544 326.69C68.5367 325.082 67.3029 324.171 65.934 323.615C64.2827 322.943 62.6131 323.093 60.9587 323.526C55.609 324.931 50.8731 328.077 47.0487 333.776C46.9567 333.913 46.8431 334.028 46.6375 334.28C46.5055 333.688 46.3766 333.224 46.2968 332.742C45.3913 327.282 44.4982 321.812 43.5897 316.352C43.4669 315.614 43.3319 314.867 43.1323 314.169C42.7702 312.906 42.0919 312.168 41.1251 312.19C40.1306 312.208 39.3479 312.968 39.1085 314.311C38.8569 315.724 38.8446 317.226 38.7801 318.698C38.7464 319.409 38.8384 320.125 38.8814 321.021Z" fill="#927628" fill-opacity="0.1"/>
<path d="M149.906 214.24C149.866 217.937 150.339 221.507 151.349 224.905C151.674 226 152.107 227.052 152.592 228.019C153.243 229.318 154.127 230.387 155.235 230.577C156.935 230.864 158.703 231.099 160.333 230.113C168.451 225.214 176.554 220.266 184.641 215.26C185.719 214.593 186.735 213.639 187.668 212.601C188.831 211.311 189.147 209.336 188.911 207.383C188.681 205.474 188.288 203.544 187.708 201.799C184.835 193.166 179.835 188.536 173.485 186.645C170.161 185.655 166.87 186.071 163.69 187.758C162.233 188.532 160.808 189.477 159.418 190.489C153.611 194.712 150.68 201.719 150.017 210.873C149.968 211.549 149.937 212.234 149.912 212.914C149.894 213.356 149.906 213.798 149.906 214.24ZM156.874 225.448C156.775 224.935 156.732 224.785 156.72 224.631C156.217 218.596 156.643 212.68 158.117 207.003C158.513 205.479 159.406 204.078 160.287 202.983C162.202 200.597 164.442 198.87 166.901 197.999C168.307 197.5 169.841 197.248 171.272 197.474C176.588 198.317 180.056 203.349 183.3 208.92C183.131 209.031 183.015 209.128 182.886 209.185C176.52 211.92 170.32 215.309 164.28 219.272C162.343 220.54 160.597 222.4 158.755 223.972C158.175 224.467 157.573 224.905 156.874 225.448Z" fill="#927628" fill-opacity="0.1"/>
<path d="M8.37922 250.246C5.64142 245.377 3.00492 240.69 0.368416 236.002C0.267132 236.069 0.168919 236.135 0.0676346 236.201C0.0676346 237.659 0.150486 239.126 0.049202 240.566C-0.184063 243.897 0.362289 246.685 1.87544 249.398C3.08474 251.567 3.91344 254.279 4.60096 256.917C5.58313 260.677 7.9004 261.847 10.0581 259.263C11.8812 257.085 13.6123 254.752 15.4293 252.561C17.7988 249.698 20.199 246.897 22.6053 244.096C23.0289 243.606 23.5322 243.257 24.0847 242.771C24.1031 243.142 24.1307 243.296 24.1154 243.442C22.59 257.103 17.9431 267.865 9.80029 275.38C7.0625 277.907 4.03008 279.373 0.880999 280.363C0.24873 280.562 0.0338554 280.915 0.049202 281.865C0.0983086 284.551 0.0645638 287.242 0.0676346 289.928C0.0676346 290.281 0.0921936 290.63 0.110607 291.121C1.09892 290.856 2.02891 290.635 2.94969 290.361C9.64071 288.368 15.1685 283.482 19.9381 276.528C27.157 266.005 31.2422 253.414 32.3165 238.75C32.3901 237.756 32.4393 236.745 32.3901 235.751C32.2091 232.172 30.1066 229.861 27.6635 230.564C27.0159 230.749 26.3805 231.112 25.7697 231.492C22.5194 233.497 19.5268 236.126 16.8566 239.471C15.1316 241.631 13.4619 243.88 11.7523 246.062C10.6106 247.52 9.43812 248.934 8.37922 250.246Z" fill="#927628" fill-opacity="0.1"/>
<path d="M18.5721 181.556C18.345 179.121 18.1424 176.965 17.9184 174.562C19.3118 175.004 20.5303 174.92 21.2578 173.259C21.6015 172.477 21.7979 171.359 21.7335 170.444C21.5555 167.917 20.1436 166.998 17.6421 167.688C17.5654 166.287 17.4887 164.896 17.4119 163.508C16.9853 155.79 16.5434 148.072 16.1505 140.349C16.0768 138.878 16.2057 137.389 16.2487 135.909C16.2824 134.756 16.7183 134.248 17.504 134.363C20.4965 134.796 23.4952 135.194 26.4816 135.693C28.1421 135.971 29.7903 136.4 31.4416 136.802C31.9603 136.925 32.4606 137.186 32.9762 137.358C33.3814 137.495 33.7896 137.677 34.2008 137.703C35.5728 137.783 36.644 136.705 36.9356 135.017C37.2272 133.325 36.6563 131.58 35.3825 130.829C34.3604 130.223 33.2678 129.804 32.1813 129.481C27.8966 128.222 23.6088 126.959 19.2996 125.867C18.0872 125.563 16.7858 125.646 15.5581 125.898C12.9062 126.437 11.2703 128.783 10.5767 132.459C9.92907 135.901 10.1071 139.408 10.4447 142.868C11.6202 154.902 12.8356 166.932 14.091 178.949C14.2874 180.835 14.6465 182.731 15.1345 184.507C15.9356 187.423 17.5654 188.62 19.7108 188.015C20.9662 187.661 22.2123 187.175 23.4277 186.605C27.8413 184.529 32.3685 183.972 36.9755 184.37C40.5082 184.675 44.0378 185.103 47.5829 184.454C48.8014 184.233 49.8357 183.751 50.3483 182.037C50.8946 180.217 50.6368 178.432 49.6669 177.164C48.8443 176.091 47.8284 175.11 46.7818 174.668C45.3024 174.05 43.7186 173.74 42.1748 173.701C37.6967 173.581 33.2678 174.328 28.9002 175.759C26.0335 176.7 23.2773 178.092 20.6684 180.067C20.0607 180.531 19.4315 180.95 18.5721 181.556Z" fill="#927628" fill-opacity="0.1"/>
<path d="M359.28 225.766C359.264 222.638 359.053 219.577 358.285 216.643C356.143 208.452 350.443 204.6 344.698 207.476C341.447 209.102 338.918 212.137 336.988 216.157C333.78 222.85 332.494 230.193 333.943 238.203C335.33 245.868 339.603 250.657 344.652 250.427C347.389 250.303 349.842 248.943 351.996 246.57C356.754 241.339 359.139 234.355 359.28 225.766ZM339.996 231.832C340.299 227.339 341.377 223.464 343.384 220.133C344.348 218.534 345.502 217.284 346.938 216.678C348.74 215.918 350.186 216.647 351.235 218.878C351.953 220.407 352.417 222.108 352.352 223.959C352.156 229.627 350.661 234.452 347.623 238.163C347.082 238.821 346.413 239.329 345.75 239.709C343.685 240.889 341.852 239.921 340.962 236.996C340.468 235.38 340.306 233.559 339.996 231.832Z" fill="#927628" fill-opacity="0.1"/>
<path d="M390.749 90.8419C390.823 83.782 387.066 77.4511 381.873 75.8783C379.423 75.1361 376.999 75.2553 374.605 76.3245C370.424 78.1844 366.775 81.2461 364.169 86.4062C362.653 89.4104 361.281 92.587 360.004 95.8165C358.503 99.6115 357.174 103.548 355.765 107.414C355.194 108.982 354.63 110.639 355.541 112.238C356.447 113.824 357.776 113.974 359.074 113.581C361.754 112.768 364.298 111.381 366.732 109.561C368.116 108.527 369.494 107.458 370.928 106.583C373.533 104.984 376.204 104.644 378.902 106.159C379.156 106.3 379.433 106.442 379.641 106.685C380.749 107.97 381.983 108.094 383.171 107.179C386.63 104.52 390.651 98.7544 390.749 90.8419ZM363.092 102.921C364.298 98.1182 366.367 93.4131 368.392 90.2366C370.814 86.4372 373.85 84.2635 377.336 83.5832C378.665 83.3225 380.123 83.6671 381.434 84.1973C383.294 84.9483 384.478 86.9276 385 89.6358C385.685 93.1922 384.181 98.7986 382.02 100.826C381.98 100.862 381.916 100.84 382.094 100.822C381.13 99.7396 380.369 98.666 379.469 97.9238C377.477 96.2759 375.286 95.7414 373.012 96.2229C369.77 96.9077 366.907 98.9046 364.276 101.653C363.881 102.068 363.488 102.496 363.092 102.921Z" fill="#927628" fill-opacity="0.1"/>
<path d="M24.9808 16.6557C25.8432 17.6895 26.6811 18.816 27.6019 19.7703C29.3177 21.5463 30.9751 23.5256 32.8473 24.8731C37.3223 28.0849 40.8305 25.8317 42.4388 19.0149C42.715 17.8441 42.9084 16.638 43.1785 15.2508C43.7524 15.8163 44.2988 16.2846 44.7868 16.8501C48.163 20.7776 52.0272 23.1412 56.2843 24.175C57.1989 24.3959 58.1903 24.3871 59.1049 24.1573C61.9532 23.4284 63.5216 20.6848 63.5707 16.5275C63.5892 15.0829 63.5585 13.6382 63.5124 12.1935C63.4572 10.5368 62.739 9.25119 61.7445 8.91984C60.6887 8.57082 59.5285 9.22026 59.1111 10.7754C58.7397 12.1626 58.6108 13.7133 58.488 15.211C58.3499 16.881 58.2087 17.177 57.0301 16.9561C54.3261 16.448 51.8461 15.105 49.6761 12.6707C48.4669 11.3144 47.3005 9.85203 46.0083 8.68569C44.9617 7.74466 43.7923 6.93176 42.6045 6.49439C40.677 5.77868 38.9337 7.24544 38.3168 9.97573C38.0129 11.3232 37.9945 12.8076 37.8441 14.2258C37.6906 15.6881 37.5832 17.1637 37.3653 18.604C37.2026 19.6775 36.641 20.1856 35.9074 19.7526C34.8823 19.1518 33.7988 18.5996 32.9179 17.6806C30.7081 15.3745 28.5994 12.8651 26.4417 10.4484C25.7604 9.68414 25.0851 8.89333 24.3547 8.23947C22.5775 6.64901 20.5334 7.78001 20.1528 10.74C19.9349 12.4277 20.0454 14.2611 20.2234 15.9797C20.4137 17.822 20.2695 19.2137 18.9804 20.0619C18.3573 20.4728 18.5691 21.0383 19.0018 21.5198C20.6224 23.3179 22.7065 22.8894 23.8114 20.4021C24.2871 19.3153 24.5603 18.0296 24.9808 16.6557Z" fill="#927628" fill-opacity="0.1"/>
<path d="M182.134 125.205C184.037 124.44 185.946 123.707 187.839 122.898C189.497 122.192 191.142 121.436 192.775 120.632C193.318 120.363 193.861 119.965 194.316 119.461C194.963 118.741 195.187 117.707 194.923 116.55C194.662 115.406 194.079 114.761 193.26 114.646C192.882 114.593 192.474 114.655 192.106 114.8C187.619 116.572 183.137 118.357 178.659 120.173C178.101 120.398 177.545 120.725 177.051 121.149C175.651 122.346 175.345 124.661 176.327 126.53C176.643 127.131 177.048 127.639 177.444 128.143C180.028 131.425 182.898 134.107 185.921 136.462C186.403 136.837 186.857 137.292 187.434 137.809C186.062 138.958 184.73 139.66 183.279 139.877C182.919 139.93 182.554 139.961 182.198 140.053C180.329 140.539 179.285 142.205 179.252 144.922C179.233 146.278 179.368 147.639 179.433 149C179.703 154.641 179.967 160.279 180.243 165.92C180.295 166.959 180.323 168.01 180.467 169.026C180.817 171.496 182.465 172.455 183.935 171.085C184.878 170.206 185.406 168.894 185.62 167.347C185.765 166.331 185.844 165.28 185.854 164.246C185.906 158.9 185.719 153.572 185.022 148.315C184.865 147.144 185.111 146.733 185.838 146.318C187.441 145.404 189.027 144.396 190.556 143.252C192.09 142.103 193.361 140.491 193.343 137.716C193.327 134.999 192.066 133.453 190.565 132.291C189.291 131.306 187.925 130.559 186.655 129.57C185.074 128.341 183.549 126.976 181.999 125.669C182.042 125.51 182.088 125.359 182.134 125.205Z" fill="#927628" fill-opacity="0.1"/>
<path d="M112.212 138.154C112.114 134.018 111.061 129.857 108.821 126.539C106.765 123.499 104.496 120.756 102.326 117.875C99.5825 114.235 96.8048 110.643 94.11 106.932C92.692 104.979 91.8172 102.505 91.409 99.7219C91.3691 99.448 91.3108 99.1785 91.2494 98.9135C91.0438 98.0255 90.6755 97.1507 90.0125 97.1993C89.4386 97.2435 88.7234 97.6013 88.349 98.1889C87.4282 99.6336 87.1734 101.551 87.508 103.384C87.8855 105.452 88.2968 107.661 89.1316 109.366C90.8105 112.795 92.6828 116.064 94.6716 119.134C97.2959 123.181 100.116 126.959 102.836 130.877C104.595 133.413 105.703 136.435 105.718 140.076C105.724 141.609 105.503 143.159 105.279 144.666C105.07 146.071 104.68 147.418 104.447 148.819C104.245 150.042 104.435 150.321 105.328 150.356C106.602 150.409 107.747 149.866 108.763 148.766C110.911 146.424 112.24 142.541 112.212 138.154Z" fill="#927628" fill-opacity="0.1"/>
<path d="M29.5448 196.961C23.6548 196.97 18.7777 203.084 18.4339 210.003C18.0073 218.538 23.4768 224.869 29.3882 222.669C31.0947 222.033 32.5925 220.844 33.8509 219.051C34.0689 218.742 34.2868 218.428 34.5293 218.163C39.1301 213.131 38.7833 203.429 33.8325 199.015C32.304 197.65 30.6313 196.97 29.5448 196.961ZM27.8045 213.268C27.4761 213.193 26.9727 213.144 26.4939 212.954C24.3822 212.115 23.8697 209.318 25.392 207.052C26.5062 205.395 28.7191 204.913 30.1218 206.031C30.8338 206.597 31.239 207.449 31.2513 208.646C31.282 211.328 30.3059 212.927 28.4735 213.201C28.3109 213.219 28.1452 213.232 27.8045 213.268Z" fill="#927628" fill-opacity="0.1"/>
<path d="M34.9683 73.0861C34.1334 72.1451 33.4275 71.3057 32.6878 70.5414C32.1231 69.9582 31.543 69.3839 30.9168 68.9598C29.7567 68.1734 28.5259 68.5798 27.7984 69.8522C27.0618 71.1422 27.0373 72.9094 27.8138 74.4204C28.9402 76.6161 30.3828 78.3037 32.0341 79.6335C33.8572 81.1047 33.9063 81.361 32.4975 83.6053C30.6345 86.5741 28.5105 89.0879 25.9968 90.864C24.6954 91.7829 23.3817 92.6621 22.1049 93.6473C21.5525 94.0758 21.0031 94.6281 20.5887 95.2996C19.7232 96.7133 20.0455 98.1845 21.3161 98.6705C21.8655 98.8781 22.4763 98.8914 23.0503 98.8295C28.6425 98.2022 33.1697 94.4867 37.0216 88.8185C37.1782 88.5887 37.3255 88.3502 37.482 88.1204C37.5189 88.0674 37.5772 88.0409 37.657 87.9746C38.2585 88.8317 38.8263 89.7727 39.4832 90.5503C40.186 91.3764 40.9227 92.207 41.736 92.7548C42.6292 93.3557 43.5622 93.0994 44.2436 91.9552C44.9035 90.8463 44.9066 89.5474 44.4247 88.359C44.0104 87.334 43.4272 86.446 42.9085 85.5094C42.1811 84.1973 41.3954 82.9514 40.7385 81.5686C40.5145 81.0959 40.4868 80.2653 40.582 79.6689C41.0393 76.8547 41.159 74.036 40.7539 71.1997C40.6587 70.5414 40.5052 69.8787 40.2904 69.2779C39.7318 67.6962 38.6698 66.8745 37.5557 67.0733C36.4047 67.281 35.4993 68.4915 35.2384 70.2631C35.1187 71.1113 35.0726 71.9861 34.9683 73.0861Z" fill="#927628" fill-opacity="0.1"/>
<path d="M333.041 123.018C333.507 123.208 333.817 123.336 334.127 123.464C335.597 124.078 337.052 124.807 338.547 125.275C340.333 125.836 341.76 124.728 342.218 122.664C342.663 120.641 341.981 118.671 340.342 117.522C338.94 116.541 337.497 115.675 336.064 114.783C333.94 113.457 331.819 112.132 329.68 110.86C329.093 110.511 328.461 110.232 327.835 110.153C325.294 109.817 323.289 112.883 323.652 116.519C323.725 117.266 323.931 117.981 324.072 118.715C324.612 121.569 325.226 124.405 325.665 127.29C326.104 130.188 326.359 133.139 326.715 136.064C326.791 136.691 326.917 137.319 327.08 137.911C327.795 140.504 329.465 141.282 330.963 139.497C331.721 138.595 332.335 137.27 332.737 135.962C333.707 132.795 333.814 129.437 333.375 126.044C333.252 125.112 333.166 124.175 333.041 123.018Z" fill="#927628" fill-opacity="0.1"/>
<path d="M257.423 265.196C257.662 266.553 257.911 268.828 258.473 270.935C259.323 274.134 260.627 274.902 262.923 273.979C264.185 273.471 265.142 272.322 265.946 270.904C268.119 267.061 269.24 262.581 269.673 257.712C269.933 254.783 269.973 251.841 269.323 249.018C268.997 247.608 268.46 246.23 267.822 245.064C267.076 243.703 265.971 243.473 264.74 243.46C262.791 243.438 261.831 245.13 260.986 247.18C258.817 252.45 257.589 258.132 257.423 265.196Z" fill="#927628" fill-opacity="0.1"/>
<path d="M220.45 98.3877C220.871 98.2817 221.442 98.2419 221.961 97.9857C225.41 96.2671 228.873 94.6015 232.279 92.7107C234.529 91.4604 236.543 89.5562 238.225 87.0115C239.683 84.807 240.72 82.2755 240.944 79.1917C241.002 78.37 240.965 77.4952 240.83 76.6912C240.557 75.0521 239.839 73.9035 238.679 73.4882C237.552 73.0861 236.576 73.5898 235.794 74.7915C235.453 75.3172 235.152 75.9048 234.882 76.51C233.793 78.9708 232.347 80.8706 230.582 82.2755C227.396 84.807 224.081 86.8746 220.546 88.1823C219.741 88.4783 218.931 88.867 218.207 89.4325C216.773 90.5459 216.095 92.4898 216.341 94.3762C216.602 96.3643 217.802 97.8973 219.401 98.2552C219.698 98.3215 220.008 98.3347 220.45 98.3877Z" fill="#927628" fill-opacity="0.1"/>
<path d="M59.0805 96.2053C62.871 96.0197 66.3516 94.2039 69.6142 91.4295C70.8143 90.4089 71.9438 89.2116 73.1715 88.2706C74.1935 87.4886 75.2831 86.795 76.3973 86.3621C78.0209 85.7347 78.865 86.3444 79.8072 88.2839C80.0804 88.845 80.4518 89.3044 80.7802 89.8081C81.1976 89.141 81.7623 88.571 82.0018 87.7891C82.7537 85.3283 81.7562 81.6702 80.0282 80.1681C78.6563 78.9753 77.1308 78.7544 75.6637 79.3685C73.9664 80.0753 72.3121 81.0694 70.7099 82.1562C69.4822 82.9912 68.3896 84.2238 67.2017 85.1913C64.2246 87.6168 61.0663 89.1719 57.5918 89.1631C56.7171 89.1631 56.0296 88.7566 55.4587 87.8156C55.0751 87.1838 54.6761 86.5609 54.2402 85.9954C53.476 85.0013 52.5644 84.8467 51.8646 85.5138C51.1219 86.2207 50.8241 87.5284 51.2538 88.9466C52.4723 92.9581 54.4183 95.7016 57.6226 96.0727C58.0922 96.1346 58.5648 96.1611 59.0805 96.2053Z" fill="#927628" fill-opacity="0.1"/>
<path d="M370.645 131.491C370.409 132.066 370.268 132.397 370.136 132.733C369.273 134.902 369.414 137.491 370.492 139.249C371.566 141.003 373.297 141.467 374.942 140.433C377.505 138.83 378.978 134.248 378.368 129.777C377.809 125.691 375.633 122.779 372.533 122.108C368.994 121.339 365.873 122.903 363.021 125.828C362.908 125.942 362.809 126.088 362.708 126.23C361.597 127.785 361.324 129.786 362.008 131.337C362.677 132.857 363.957 133.25 365.449 132.499C367.067 131.686 368.752 131.469 370.645 131.491Z" fill="#927628" fill-opacity="0.1"/>
<path d="M202.201 134.173C202.207 140.584 206.117 145.024 210.644 143.734C212.025 143.34 213.327 142.642 214.41 141.29C215.699 139.691 216.089 137.734 215.868 135.26C215.567 131.942 214.585 129.34 212.713 127.409C211.507 126.168 210.162 125.474 208.677 125.324C204.972 124.966 202.195 128.752 202.201 134.173ZM210.936 136.214C209.549 137.058 208.057 136.466 207.538 134.853C207.382 134.372 207.339 133.608 207.504 133.183C207.621 132.887 208.198 132.795 208.536 132.879C209.846 133.206 210.365 134.73 210.936 136.214Z" fill="#927628" fill-opacity="0.1"/>
<path d="M247.543 124.798C247.313 117.76 245.431 112.852 241.84 109.362C241.171 108.712 240.33 108.249 239.532 108.098C237.844 107.789 236.613 109.813 237.003 112.203C237.19 113.351 237.577 114.456 237.964 115.512C238.636 117.358 239.431 119.117 240.075 120.981C241.592 125.368 241.325 129.667 239.603 133.824C239.345 134.443 239.038 135.021 238.805 135.658C238.473 136.563 238.667 137.027 239.357 137.098C242.798 137.456 245.643 134.858 246.73 130.135C247.181 128.182 247.353 126.093 247.543 124.798Z" fill="#927628" fill-opacity="0.1"/>
<path d="M130.551 179.192C130.628 186.225 132.197 191.421 135.257 195.671C136.116 196.864 137.089 197.774 138.347 197.8C139.986 197.831 141.159 196.232 141.021 193.882C140.956 192.768 140.628 191.642 140.287 190.612C139.928 189.534 139.394 188.58 138.964 187.551C137.586 184.259 137.077 180.729 137.568 176.921C137.678 176.055 137.78 175.172 137.783 174.297C137.783 172.463 137.23 171.019 136.055 170.228C134.855 169.42 133.615 169.596 132.715 170.935C132.009 171.986 131.435 173.378 131.113 174.77C130.72 176.457 130.656 178.3 130.551 179.192Z" fill="#927628" fill-opacity="0.1"/>
<path d="M332.028 291.646C332.028 292.963 331.923 294.302 332.052 295.592C332.23 297.394 333.053 298.287 334.287 298.684C335.198 298.98 336.088 299.466 336.96 299.974C338.301 300.756 339.584 301.75 340.947 302.435C343.264 303.593 344.738 301.706 344.385 298.207C344.17 296.069 343.986 293.922 343.82 291.77C343.562 288.443 342.601 287.052 340.312 286.526C339.474 286.332 338.664 285.881 337.853 285.497C336.877 285.033 335.932 284.423 334.944 284.039C333.047 283.297 331.779 284.997 331.979 287.812C332.068 289.08 331.994 290.37 331.994 291.646C332.003 291.646 332.016 291.646 332.028 291.646Z" fill="#927628" fill-opacity="0.1"/>
<path d="M105.212 226.747C110.482 226.848 113.391 221.525 114.996 214.77C115.325 213.387 115.451 211.872 115.524 210.405C115.626 208.395 114.447 207.352 113.253 208.421C112.75 208.872 112.339 209.694 112.053 210.471C111.574 211.774 111.267 213.206 110.816 214.536C110.058 216.776 109.002 217.345 107.382 216.444C106.369 215.879 105.377 215.238 104.368 214.668C102.409 213.564 100.801 214.111 99.7299 216.219C98.6035 218.437 98.6557 221.22 99.9079 223.451C101.271 225.877 103.066 226.91 105.212 226.747Z" fill="#927628" fill-opacity="0.1"/>
<path d="M270.338 221.551C271.713 221.538 273.156 220.46 274.258 218.366C275.992 215.075 276.732 211.461 275.894 207.409C275.412 205.077 274.798 202.797 274.209 200.509C274.055 199.917 273.797 199.369 273.543 198.847C272.493 196.683 270.802 196.016 269.39 197.182C267.978 198.348 267.613 200.738 268.349 203.199C268.985 205.324 269.596 207.485 270.041 209.702C270.473 211.876 269.881 213.268 268.432 214.156C267.082 214.982 266.391 216.722 266.68 218.552C266.987 220.487 268.187 221.613 270.338 221.551Z" fill="#927628" fill-opacity="0.1"/>
<path d="M150.499 52.9182C152.503 52.9182 154.504 52.9005 156.508 52.9226C158.454 52.9447 159.535 51.1245 158.93 48.4472C158.405 46.1366 157.65 43.9277 156.929 41.7187C156.57 40.6142 155.891 40.221 155.004 40.1901C153.421 40.1371 151.84 39.819 150.253 39.735C149.311 39.6864 148.35 39.7571 147.423 39.9913C145.885 40.3756 145.241 41.785 145.539 43.9983C145.913 46.7728 146.524 49.4236 147.69 51.7518C148.415 53.1833 149.461 53.0728 150.499 52.9182Z" fill="#927628" fill-opacity="0.1"/>
<path d="M151.926 166.663C150.895 167.082 149.891 167.255 149.044 167.873C145.247 170.639 142.985 175.167 142.064 181.101C141.846 182.514 141.997 183.91 142.552 185.152C142.973 186.093 143.584 186.636 144.372 186.574C145.121 186.513 145.502 185.81 145.843 184.878C147.297 180.88 149.369 177.655 152.076 175.379C152.81 174.765 153.755 174.566 154.624 174.421C156.063 174.182 156.966 172.618 156.444 170.683C156.165 169.645 155.563 168.558 154.9 168.023C154.01 167.299 152.92 167.091 151.926 166.663Z" fill="#927628" fill-opacity="0.1"/>
<path d="M55.8914 247.259C55.9405 253.71 59.0712 258.662 63.5308 259.329C63.7794 259.365 64.0342 259.382 64.2828 259.36C65.5074 259.263 66.4282 258.388 66.7167 257.076C67.0052 255.755 66.6123 254.319 65.5903 253.241C64.9396 252.556 64.2183 252.009 63.5554 251.346C62.2816 250.078 61.5849 248.328 61.5143 246.084C61.4744 244.794 61.6125 243.681 62.4688 242.85C63.2239 242.121 63.3835 240.672 63.0305 239.484C62.6438 238.176 61.6401 237.385 60.5567 237.562C59.1602 237.792 58.1289 238.901 57.3155 240.469C56.2751 242.475 55.8853 244.785 55.8914 247.259Z" fill="#927628" fill-opacity="0.1"/>
<path d="M385.541 14.566C385.436 15.9179 385.206 17.2388 385.261 18.5377C385.353 20.676 385.559 22.8143 385.851 24.9128C386.016 26.1101 386.704 26.7816 387.579 26.8258C388.45 26.87 389.086 26.2515 389.417 25.1072C389.564 24.6036 389.669 24.0071 389.638 23.4726C389.442 20.137 390.092 17.04 390.853 13.9607C390.964 13.5101 391.081 13.0506 391.139 12.5779C391.351 10.877 390.761 9.5251 389.598 9.13632C388.923 8.91101 388.226 8.77405 387.532 8.69453C385.424 8.45596 383.315 8.22181 381.204 8.06718C380.234 7.99649 379.252 8.03183 378.285 8.15995C376.983 8.33225 376.176 9.55161 376.188 11.1377C376.201 12.7414 377.023 13.9254 378.328 14.0447C380.713 14.2656 383.104 14.3981 385.541 14.566Z" fill="#927628" fill-opacity="0.1"/>
<path d="M120.644 279.387C119.837 279.479 119.023 279.488 118.232 279.687C117.572 279.855 117.351 279.497 117.213 278.649C117.047 277.637 116.817 276.643 116.543 275.68C116.025 273.842 115.125 272.954 114.02 273.073C112.962 273.188 112.148 274.24 111.863 276.131C111.648 277.531 111.577 278.98 111.467 280.412C111.369 281.688 111.335 282.974 111.224 284.246C110.924 287.719 112.955 290.321 115.343 289.415C116.823 288.854 118.278 288.152 119.739 287.489C120.589 287.105 121.424 286.659 122.271 286.257C123.36 285.74 124.011 284.684 124.085 283.292C124.158 281.878 123.664 280.73 122.568 280.041C121.97 279.665 121.316 279.471 120.687 279.197C120.672 279.259 120.656 279.325 120.644 279.387Z" fill="#927628" fill-opacity="0.1"/>
<path d="M201.841 18.6526C202.096 22.6155 203.766 24.418 206.209 22.7657C206.961 22.2576 207.768 21.9086 208.554 21.511C209.904 20.8262 211.273 20.2033 212.612 19.4655C213.802 18.8072 214.119 16.6292 213.189 15.1536C212.523 14.0933 211.725 13.1876 210.939 12.2996C209.656 10.8461 208.253 9.65764 207.222 7.70932C206.765 6.84782 205.764 6.43253 204.954 6.14979C204.104 5.84936 203.241 6.87433 203.075 8.18646C202.649 11.522 202.265 14.8708 201.866 18.2108C201.848 18.361 201.848 18.52 201.841 18.6526Z" fill="#927628" fill-opacity="0.1"/>
<path d="M71.0935 102.139C69.3195 102.169 68.7792 103.088 68.9941 105.116C69.0432 105.589 69.0862 106.079 69.2028 106.526C69.9456 109.371 70.6853 112.22 71.4741 115.043C72.1463 117.451 73.5888 118.158 75.1388 116.864C75.6882 116.404 76.1823 115.799 76.6796 115.22C77.8275 113.886 78.9447 112.494 80.108 111.187C81.084 110.086 81.8851 108.876 81.4922 106.936C81.1085 105.041 79.9883 104.692 78.8035 104.449C76.8484 104.056 74.8963 103.614 72.9565 103.08C72.2076 102.868 71.5048 102.351 71.0935 102.139Z" fill="#927628" fill-opacity="0.1"/>
<path d="M321.04 90.1041C320.714 85.3238 319.763 81.3742 318.127 77.8045C317.262 75.918 315.859 75.3437 314.631 76.1389C313.422 76.9209 312.833 78.825 313.201 81.0252C313.437 82.4257 313.79 83.782 314.069 85.1692C314.333 86.4769 314.61 87.7846 314.8 89.1189C315.116 91.3278 314.852 92.0435 313.471 93.0818C312.636 93.7091 312.578 94.1995 313.228 95.1626C315.521 98.5688 318.931 97.8355 320.349 93.5501C320.745 92.3484 320.874 90.9611 321.04 90.1041Z" fill="#927628" fill-opacity="0.1"/>
<path d="M170.185 98.0166C170.121 102.121 171.855 103.548 173.951 102.276C175.63 101.255 177.453 100.716 179.215 99.9826C179.589 99.828 179.985 99.7882 180.357 99.6292C181.213 99.2669 181.854 98.5468 182.042 97.2214C182.232 95.896 181.864 94.8313 181.142 94.067C179.773 92.6179 178.377 91.2262 176.977 89.839C176.357 89.2249 175.697 88.6992 175.074 88.0895C173.549 86.6007 171.612 87.4798 171.186 90.0687C170.713 92.9448 170.446 95.896 170.185 98.0166Z" fill="#927628" fill-opacity="0.1"/>
<path d="M51.4348 315.291C52.2359 315.282 52.8682 314.73 53.2242 313.772C54.2033 311.121 55.5937 309.066 57.2818 307.33C58.2118 306.372 58.6937 304.931 58.3438 303.199C57.9908 301.454 57.024 300.831 55.8883 300.549C53.5895 299.979 51.2875 299.4 48.9886 298.826C48.7953 298.777 48.605 298.702 48.4116 298.689C47.098 298.587 46.3 300.058 46.7297 301.848C47.6198 305.554 48.5252 309.252 49.4398 312.945C49.8204 314.492 50.5263 315.287 51.4348 315.291Z" fill="#927628" fill-opacity="0.1"/>
<path d="M121.402 146.163C122.099 145.792 122.842 145.536 123.486 145.028C126.138 142.956 128.25 140.027 129.836 136.333C129.996 135.958 130.143 135.565 130.254 135.158C130.684 133.577 130.619 132.061 129.803 130.771C128.992 129.486 127.924 129.119 126.819 129.671C126.073 130.042 125.306 130.612 124.741 131.385C122.964 133.815 121.27 136.364 119.573 138.909C119.254 139.386 119.017 140.022 118.836 140.641C118.017 143.446 119.247 146.031 121.402 146.163Z" fill="#927628" fill-opacity="0.1"/>
<path d="M21.9269 46.8126C24.1429 46.9628 26.3559 47.113 28.5719 47.2632C29.9838 47.3604 31.0335 46.5299 31.5061 44.9394C31.9911 43.3092 31.7087 41.4669 30.6068 40.1945C29.0906 38.4406 27.5192 36.7794 25.9231 35.1801C24.8888 34.1419 23.4523 34.2391 22.7618 35.7633C21.6353 38.2462 20.6501 40.9191 19.9043 43.6803C19.4071 45.5093 20.5457 47.1572 21.9177 47.1174C21.9177 47.0158 21.9239 46.9142 21.9269 46.8126Z" fill="#927628" fill-opacity="0.1"/>
<path d="M5.25766 97.3407C5.42954 102.885 8.42513 110.241 12.9431 111.129C13.5324 111.244 14.1831 111.209 14.754 110.979C16.4543 110.285 17.0498 107.369 15.8313 105.359C15.1714 104.272 14.2506 103.499 13.4127 102.651C12.6638 101.891 11.8351 101.29 11.1046 100.499C10.1439 99.4613 9.53315 98.0299 9.16484 96.382C8.68604 94.2348 8.00466 93.4131 6.93962 93.6694C5.89914 93.9123 5.24846 95.3393 5.25766 97.3407Z" fill="#927628" fill-opacity="0.1"/>
<path d="M130.392 263.023C130.637 264.701 130.754 266.018 131.03 267.259C131.331 268.62 131.991 269.146 132.921 268.682C133.688 268.298 134.492 267.737 135.069 266.937C137.064 264.176 137.991 260.73 137.807 256.731C137.727 254.995 137.276 253.444 136.362 252.256C134.723 250.122 132.338 250.891 131.736 253.93C131.132 257.001 130.803 260.177 130.392 263.023Z" fill="#927628" fill-opacity="0.1"/>
<path d="M12.3416 62.3859C11.3595 62.8763 10.4233 63.2695 9.53016 63.804C8.79047 64.2458 8.05692 64.7671 7.39703 65.4122C6.80466 65.9909 6.54377 66.9098 6.82615 67.9569C7.09931 68.973 7.71623 69.2558 8.39454 69.2072C8.97464 69.163 9.55474 68.9951 10.1287 68.8449C11.7738 68.4208 13.4128 67.9348 15.0641 67.546C17.6361 66.9452 18.5722 64.0514 16.9639 61.087C15.6165 58.5997 14.0481 56.3554 12.5135 54.089C11.8076 53.0463 10.7855 53.0596 10.0673 53.8636C9.35828 54.6545 9.11582 56.0726 9.57621 57.3406C9.85551 58.1093 10.2637 58.7941 10.6535 59.47C11.1323 60.305 11.6541 61.087 12.1544 61.8999C12.2066 61.9882 12.2342 62.1031 12.3416 62.3859Z" fill="#927628" fill-opacity="0.1"/>
<path d="M371.962 162.187C368.506 162.315 366.76 166.446 368.174 170.661C369.239 173.833 371.262 175.424 373.306 174.695C376.28 173.634 377.493 169.503 375.946 165.704C375.004 163.398 373.607 162.236 371.962 162.187Z" fill="#927628" fill-opacity="0.1"/>
<path d="M34.8178 161.644C36.3678 161.657 37.5955 159.691 37.2825 157.482C37.1444 156.501 36.8252 155.45 36.3678 154.703C34.7872 152.119 33.1113 149.658 31.4693 147.153C31.3925 147.038 31.2974 146.945 31.2084 146.853C29.9868 145.527 28.6118 145.54 27.7186 146.879C26.8255 148.222 26.8869 150.193 27.869 151.893C29.3852 154.509 30.8984 157.129 32.4116 159.744C33.1789 161.065 33.9032 161.635 34.8178 161.644Z" fill="#927628" fill-opacity="0.1"/>
<path d="M132.918 11.7341C131.911 11.7031 130.969 11.9771 130.205 12.9932C128.995 14.5969 129.133 16.9649 130.613 17.9369C132.804 19.3815 134.434 21.5728 135.662 24.5285C136.405 26.3177 137.642 26.3177 138.513 24.6345C139.449 22.8275 139.511 20.7467 139.216 18.6482C138.627 14.4423 136.134 11.7473 132.918 11.7341Z" fill="#927628" fill-opacity="0.1"/>
<path d="M35.1709 106.468C34.3821 106.817 33.538 107.012 32.8198 107.551C31.6382 108.443 31.6811 110.413 32.8383 111.368C35.7142 113.745 38.2463 116.7 40.2966 120.482C41.024 121.821 42.0768 121.781 42.6753 120.305C42.9668 119.581 43.1479 118.653 43.1479 117.813C43.1449 112.353 39.0167 106.596 35.1709 106.468Z" fill="#927628" fill-opacity="0.1"/>
<path d="M292.011 161.874C290.909 162.068 289.623 162.046 288.696 163.579C288.598 163.738 288.401 163.782 288.248 163.866C286.974 164.529 286.538 166.133 287.223 167.776C288.205 170.135 289.193 172.49 290.215 174.814C291.102 176.833 293.165 176.806 293.711 174.58C294.405 171.735 294.899 168.735 295.16 165.748C295.365 163.385 293.96 161.838 292.011 161.874Z" fill="#927628" fill-opacity="0.1"/>
<path d="M322.24 156.285C321.957 153.365 321.715 150.462 321.383 147.582C321.156 145.598 320.165 144.436 318.992 144.56C317.774 144.688 316.875 146.066 316.835 148.085C316.807 149.481 316.918 150.882 316.982 152.278C317.093 154.717 317.215 157.155 317.329 159.59C317.427 161.67 318.219 163.044 319.419 163.212C320.595 163.376 321.654 162.205 321.945 160.213C322.129 158.931 322.145 157.597 322.24 156.285Z" fill="#927628" fill-opacity="0.1"/>
<path d="M290.727 290.798C290.727 292.318 290.709 293.842 290.731 295.362C290.77 297.885 292.188 299.409 293.821 298.521C295.325 297.699 296.783 296.67 298.217 295.609C299.153 294.92 299.877 293.811 299.705 292.163C299.524 290.445 298.849 289.035 297.655 288.532C296.136 287.896 294.579 287.396 293.017 287.034C291.578 286.698 290.549 288.421 290.727 290.798Z" fill="#927628" fill-opacity="0.1"/>
<path d="M237.285 229.305C239.633 229.283 241.813 226.376 241.8 223.279C241.788 219.943 239.968 216.882 237.994 216.868C235.815 216.855 233.228 220.389 233.243 223.354C233.258 225.943 235.554 229.322 237.285 229.305Z" fill="#927628" fill-opacity="0.1"/>
<path d="M189.482 164.087C189.638 165.435 189.933 166.499 190.758 167.038C191.559 167.56 192.321 167.202 192.904 166.349C193.585 165.351 194.181 164.237 194.819 163.177C196.056 161.123 197.284 159.055 198.542 157.027C199.242 155.896 199.432 154.575 198.987 153.387C198.53 152.176 197.578 151.575 196.55 151.973C196.105 152.145 195.645 152.437 195.282 152.843C193.401 154.946 191.744 157.381 190.534 160.354C190.068 161.498 189.825 162.837 189.482 164.087Z" fill="#927628" fill-opacity="0.1"/>
<path d="M91.2649 80.1018C91.2311 78.3391 90.9948 76.7133 90.2582 75.3128C89.3251 73.5368 87.8242 72.8166 86.489 73.4837C85.0772 74.195 84.3282 76.3377 85.1508 78.1005C86.2128 80.3757 86.3509 82.7305 86.1913 85.3018C86.0931 86.8922 86.7806 87.7802 87.8856 87.6344C88.969 87.4931 89.7272 86.583 90.3011 85.3283C91.0255 83.7246 91.225 81.9176 91.2649 80.1018Z" fill="#927628" fill-opacity="0.1"/>
<path d="M18.075 89.2205C18.4526 89.0128 19.2199 88.7433 19.8798 88.1999C21.6661 86.742 23.1577 84.7628 24.367 82.3727C24.6709 81.7718 24.9072 81.0561 25.0607 80.3404C25.3584 78.9488 24.9748 77.5748 24.189 76.8812C23.4371 76.2229 22.4426 76.3422 21.7091 77.2655C21.2917 77.7912 20.9663 78.4584 20.552 78.9885C19.4501 80.3978 18.3267 81.7674 17.2095 83.1458C16.8719 83.5611 16.5036 83.9322 16.1997 84.3961C15.6043 85.3062 15.3526 86.3709 15.7117 87.5903C16.0187 88.6462 16.7614 89.2382 18.075 89.2205Z" fill="#927628" fill-opacity="0.1"/>
<path d="M97.7715 82.1429C97.7685 84.4844 98.7598 86.5034 100.193 87.0689C101.608 87.63 103.091 86.6625 103.898 84.564C104.162 83.8748 104.389 83.106 104.481 82.3373C104.834 79.3861 103.545 76.8281 101.657 76.6161C99.6499 76.3863 97.7777 79.0548 97.7715 82.1429Z" fill="#927628" fill-opacity="0.1"/>
<path d="M266.441 36.6822C268.383 36.2404 270.302 34.8532 271.606 32.0478C272.183 30.8064 272.073 29.3308 271.474 28.35C270.879 27.3736 269.884 27.029 268.945 27.7403C267.518 28.8227 266.118 30.0023 264.768 31.2658C263.853 32.1229 263.552 33.5101 263.829 34.7163C264.111 35.9489 264.961 36.6867 266.441 36.6822Z" fill="#927628" fill-opacity="0.1"/>
<path d="M292.281 269.698C290.504 269.667 289.064 271.695 289.055 274.231C289.049 276.736 290.418 278.786 292.143 278.848C293.911 278.909 295.381 276.895 295.411 274.372C295.442 271.819 294.042 269.729 292.281 269.698Z" fill="#927628" fill-opacity="0.1"/>
<path d="M112.725 197.434C114.625 197.412 116.193 195.371 116.203 192.919C116.212 190.612 114.775 188.682 113.069 188.708C111.157 188.735 109.512 190.798 109.527 193.144C109.542 195.516 110.991 197.456 112.725 197.434Z" fill="#927628" fill-opacity="0.1"/>
<path d="M251.447 92.852C250.339 92.8741 249.572 93.2497 249.053 94.3453C248.412 95.706 248.725 97.2611 249.768 97.9194C250.787 98.5644 251.828 99.1432 252.834 99.8147C253.218 100.071 253.51 100.645 253.899 100.844C254.415 101.1 255.041 101.388 255.517 101.175C255.907 100.999 256.253 100.173 256.413 99.532C256.524 99.0946 256.373 98.3966 256.186 97.9459C255.29 95.8032 254.08 94.12 252.445 93.1701C252.07 92.9448 251.64 92.9095 251.447 92.852Z" fill="#927628" fill-opacity="0.1"/>
<path d="M272.057 108.752C272.073 109.123 272.06 109.609 272.119 110.078C272.426 112.534 274.236 113.59 275.645 112.154C276.784 110.992 277.379 108.5 276.977 106.583C276.652 105.037 275.676 104.021 274.592 104.096C273.429 104.175 272.367 105.514 272.146 107.206C272.091 107.679 272.091 108.165 272.057 108.752Z" fill="#927628" fill-opacity="0.1"/>
<path d="M13.4649 10.1304C12.1145 10.1083 10.9297 12.0919 10.8991 14.4334C10.8714 16.4038 11.8812 17.9943 13.1733 18.0252C14.5698 18.0562 15.7883 16.1609 15.7822 13.9696C15.7761 11.8048 14.7786 10.1524 13.4649 10.1304Z" fill="#927628" fill-opacity="0.1"/>
<path d="M9.1097 200.341C10.4939 200.314 11.5099 198.94 11.5007 197.107C11.4915 195.251 10.3896 193.771 9.04525 193.811C7.79299 193.846 6.78628 195.331 6.79242 197.138C6.79549 198.945 7.82367 200.367 9.1097 200.341Z" fill="#927628" fill-opacity="0.1"/>
<path d="M154.602 91.9287C154.59 93.7091 155.609 95.1008 156.944 95.1317C158.276 95.1626 159.289 93.7886 159.283 91.964C159.274 90.1659 158.227 88.6992 156.959 88.708C155.673 88.7168 154.615 90.1659 154.602 91.9287Z" fill="#927628" fill-opacity="0.1"/>
<path d="M35.2875 119.064C35.0112 119.117 34.6767 119.05 34.4741 119.254C34.1334 119.594 33.7191 120.053 33.6362 120.566C33.5625 121.012 33.8081 121.918 34.069 122.072C35.0542 122.66 36.0916 123.128 37.1413 123.415C37.4267 123.495 38.0314 122.854 38.1081 122.408C38.2094 121.821 38.0866 120.796 37.792 120.5C37.0707 119.766 36.1959 119.346 35.3826 118.799C35.3519 118.887 35.3212 118.975 35.2875 119.064Z" fill="#927628" fill-opacity="0.1"/>
<path d="M80.7895 148.474C82.4407 148.483 83.7575 146.592 83.7544 144.211C83.7513 141.838 82.4192 139.943 80.7741 139.965C79.1597 139.987 77.8675 141.847 77.8522 144.175C77.8337 146.561 79.1351 148.465 80.7895 148.474Z" fill="#927628" fill-opacity="0.1"/>
<path d="M168.54 211.076C169.633 210.339 170.768 209.707 171.803 208.823C172.459 208.262 172.579 207.206 172.248 206.15C171.839 204.847 170.909 203.875 170.053 204.282C168.988 204.785 167.957 205.554 167.021 206.442C166.398 207.034 166.33 208.165 166.628 209.181C166.956 210.308 167.625 210.736 168.436 210.772C168.469 210.873 168.503 210.975 168.54 211.076Z" fill="#927628" fill-opacity="0.1"/>
</g>
</g>
<defs>
<clipPath id="clip0_1_2013">
<rect width="395" height="304" fill="white" transform="matrix(-1 0 0 1 395 0)"/>
</clipPath>
<clipPath id="clip1_1_2013">
<rect width="395" height="395" fill="white" transform="matrix(-1 0 0 1 395 0)"/>
</clipPath>
</defs>
</svg>
